<?xml version="1.0" encoding="UTF-8" standalone="no"?>
<!-- Created with Inkscape (http://www.inkscape.org/) -->

<svg
   width="178.99335mm"
   height="90.073181mm"
   viewBox="0 0 178.99335 90.073181"
   version="1.1"
   id="svg1"
   sodipodi:docname="vaccel-stack-light.svg"
   inkscape:version="1.4 (e7c3feb100, 2024-10-09)"
   xmlns:inkscape="http://www.inkscape.org/namespaces/inkscape"
   xmlns:sodipodi="http://sodipodi.sourceforge.net/DTD/sodipodi-0.dtd"
   xmlns="http://www.w3.org/2000/svg"
   xmlns:svg="http://www.w3.org/2000/svg">
  <sodipodi:namedview
     id="namedview1"
     pagecolor="#ffffff"
     bordercolor="#666666"
     borderopacity="1.0"
     inkscape:showpageshadow="2"
     inkscape:pageopacity="0.0"
     inkscape:pagecheckerboard="0"
     inkscape:deskcolor="#d1d1d1"
     inkscape:document-units="mm"
     inkscape:zoom="1.2604602"
     inkscape:cx="337.9718"
     inkscape:cy="170.17594"
     inkscape:window-width="1920"
     inkscape:window-height="1080"
     inkscape:window-x="0"
     inkscape:window-y="0"
     inkscape:window-maximized="0"
     inkscape:current-layer="layer2" />
  <defs
     id="defs1">
    <clipPath
       clipPathUnits="userSpaceOnUse"
       id="clipPath21">
      <rect
         style="display:none;fill:#e468c9;stroke-width:1.58765;stroke-linejoin:bevel;stroke-dasharray:4.03696, 2.01847;stroke-dashoffset:5.04616"
         id="rect21"
         width="18.732576"
         height="44.539818"
         x="-197.57687"
         y="114.37132"
         d="m -197.57687,114.37132 h 18.73257 v 44.53982 h -18.73257 z" />
      <path
         id="lpe_path-effect21"
         style="display:block;fill:#e468c9;stroke-width:1.58765;stroke-linejoin:bevel;stroke-dasharray:4.03696, 2.01847;stroke-dashoffset:5.04616"
         class="powerclip"
         d="m -190.61673,113.63421 h 177.065427 v 87.2723 H -190.61673 Z m -6.96014,0.73711 v 44.53982 h 18.73257 v -44.53982 z" />
    </clipPath>
    <clipPath
       clipPathUnits="userSpaceOnUse"
       id="clipPath6">
      <path
         id="path6"
         style="display:inline;fill:#e468c9;stroke-width:1.2432;stroke-linejoin:bevel;stroke-dasharray:3.16108, 1.58055;stroke-dashoffset:3.95137"
         d="m -185.03677,117.24091 v 0.0274 h 6.18154 v 3.11144 h -6.18154 v 38.75474 h -13.76918 v -41.89356 z" />
    </clipPath>
  </defs>
  <g
     id="layer2"
     style="display:inline"
     transform="translate(-18.551302,-105.83335)">
    <rect
       id="rect1512-5-1-8-2"
       data-name="rect151"
       class="st4"
       x="-197.24466"
       y="118.93147"
       width="25.799107"
       height="39.687496"
       style="display:inline;fill:none;fill-opacity:1;stroke:#841a6b;stroke-width:0.6;stroke-dasharray:1.2, 0.6;stroke-dashoffset:1.26;stroke-opacity:1"
       ry="3.5097516"
       clip-path="url(#clipPath6)"
       transform="scale(-1,1)" />
    <path
       id="rect12-9"
       data-name="rect151"
       class="st4"
       x="-185.31429"
       y="118.93428"
       width="166.46298"
       height="76.672234"
       style="display:inline;fill:none;fill-opacity:1;stroke:#841a6b;stroke-width:0.6;stroke-dasharray:1.2, 0.6;stroke-dashoffset:0.78;stroke-opacity:1"
       ry="3.507395"
       clip-path="url(#clipPath21)"
       transform="scale(-1,1)"
       d="m -181.80689,118.93428 h 159.448192 c 1.943097,0 3.507395,1.5643 3.507395,3.5074 v 69.65744 c 0,1.9431 -1.564298,3.50739 -3.507395,3.50739 H -181.80689 c -1.9431,0 -3.5074,-1.56429 -3.5074,-3.50739 v -69.65744 c 0,-1.9431 1.5643,-3.5074 3.5074,-3.5074 z" />
    <g
       id="g7-4-8"
       transform="matrix(0,-0.54765459,0.54250835,0,-47.123505,244.7933)"
       style="display:inline">
      <polygon
         class="st4"
         points="192.501,363.265 181.302,331.86 165.95,331.86 185.455,380.95 199.594,380.95 219.146,331.86 204.074,331.86 192.688,363.265 "
         id="polygon1-2-5-3"
         style="fill:#f96e3e"
         transform="matrix(0.35277832,0,0,0.35277832,68.502689,26.492729)" />
      <path
         class="st2"
         d="m 159.22246,144.65265 c -1.51483,-0.98813 -3.32529,-1.43228 -5.61377,-1.43228 -1.25095,0 -2.50225,0.19756 -3.76979,0.57609 -1.26753,0.37853 -2.35408,0.889 -3.27589,1.51483 l 1.82739,3.44029 c 1.66264,-1.00436 3.34187,-1.51448 5.0539,-1.51448 1.99179,0 3.2759,0.82304 3.2759,2.58446 v 0.67486 c -1.18534,-0.26352 -2.40348,-0.39511 -3.65478,-0.39511 -1.89337,0 -3.63785,0.46108 -5.07013,1.3335 -1.43228,0.87278 -2.33751,2.40348 -2.33751,4.26368 0,3.88515 2.8642,5.38305 6.07449,5.38305 0.98778,0 1.92581,-0.21379 2.8314,-0.65864 0.90523,-0.4445 1.59667,-1.00401 2.09056,-1.69581 h 0.0663 v 2.02495 h 4.88916 v -10.84828 c 0,-2.43629 -0.87278,-4.2471 -2.3869,-5.25111 z m -2.50226,9.56417 c 0,1.06998 -0.37853,1.92582 -1.15253,2.53507 -0.77364,0.62583 -1.62983,0.93839 -2.56787,0.93839 -1.56387,0 -2.58446,-0.75742 -2.58446,-2.09057 0,-0.77364 0.31257,-1.3335 0.9384,-1.71203 0.62582,-0.37853 1.34972,-0.55986 2.15653,-0.55986 1.13595,0 2.20557,0.16475 3.21028,0.51047 v 0.37853 z"
         id="path1-7-2-1"
         style="fill:#841a6b;stroke-width:0.352778" />
      <path
         class="st2"
         d="m 186.02127,156.63688 c -1.20192,0 -2.15654,-0.39511 -2.89737,-1.18533 -0.74084,-0.79023 -1.11937,-1.89336 -1.11937,-3.29248 0,-1.36631 0.36195,-2.46945 1.10279,-3.29248 0.7246,-0.82339 1.663,-1.23473 2.81517,-1.23473 1.26753,0 2.42006,0.55951 3.44065,1.66265 l 3.29248,-3.14432 c -1.663,-1.90958 -3.75357,-2.93017 -6.83191,-2.93017 -2.58481,0 -4.72476,0.83926 -6.38705,2.50225 -1.67711,1.67676 -2.52166,3.81354 -2.52378,6.42621 0,0 0,0.008 -0.001,0.0363 -7.1e-4,1.26612 -0.36231,2.31211 -1.08586,3.1676 -0.74118,0.85584 -1.71203,1.28411 -2.93053,1.28411 -1.20156,0 -2.18934,-0.4445 -2.96299,-1.31692 -0.77364,-0.87278 -1.15217,-1.92617 -1.15217,-3.16054 0,-1.26789 0.37853,-2.35409 1.11937,-3.22687 0.74083,-0.87242 1.71203,-1.30034 2.93017,-1.30034 1.08445,0 1.9798,0.36583 2.71323,1.08974 0.38735,-1.45486 1.11372,-2.71922 2.18722,-3.79272 0.1016,-0.1016 0.21096,-0.19086 0.31609,-0.28646 -1.4672,-0.95039 -3.18876,-1.4224 -5.15092,-1.4224 -2.63384,0 -4.82319,0.83926 -6.56803,2.53506 -1.76142,1.69581 -2.63384,3.81918 -2.63384,6.40399 0,2.5848 0.87242,4.70782 2.60068,6.38705 1.72826,1.6958 3.9176,2.53542 6.53522,2.53542 2.61762,0 4.80555,-0.83397 6.56274,-2.51602 0.01,0.01 0.0176,0.0205 0.0275,0.0303 1.66299,1.66264 3.77014,2.48568 6.32143,2.48568 3.21028,0 5.26769,-1.10314 7.09508,-3.12774 l -3.2759,-3.02895 c -1.13595,1.20156 -2.09057,1.71203 -3.53907,1.71203 z"
         id="path2-0-5-8"
         style="fill:#841a6b;stroke-width:0.352778" />
      <path
         class="st2"
         d="m 201.26693,143.22037 c -4.87257,-0.0825 -8.49419,3.96735 -8.39541,8.9387 0,2.71604 0.80645,4.87257 2.43593,6.48583 1.61326,1.62983 3.70417,2.43628 6.28863,2.43628 3.01272,0 5.48182,-1.15217 7.07885,-3.1937 l -2.99615,-2.73262 c -1.0534,1.23472 -2.3869,1.8602 -3.98357,1.8602 -2.1897,0 -3.37503,-1.0534 -3.53943,-3.14396 h 11.34218 c 0.0162,-0.37853 0.0328,-0.83961 0.0328,-1.35008 0,-2.48568 -0.6911,-4.72476 -1.99179,-6.46925 -1.31692,-1.7452 -3.52284,-2.8314 -6.27205,-2.8314 z m -3.17712,7.45703 c 0.21379,-2.35409 1.25096,-3.53943 3.11116,-3.53943 1.92581,0 2.94675,1.3007 3.12773,3.53943 h -6.23924 z"
         id="path3-3-4-9"
         style="fill:#841a6b;stroke-width:0.352778" />
      <rect
         class="st2"
         x="211.35356"
         y="135.46667"
         width="5.0870633"
         height="25.285387"
         id="rect3-4-7-6"
         style="fill:#841a6b;stroke-width:0.352778" />
      <g
         id="g8-6-4-4"
         transform="matrix(0.35277832,0,0,0.35277832,68.502689,26.492729)">
        <polygon
           class="st1"
           points="121.804,346.247 161.398,346.247 160.569,344.165 121.804,344.165 "
           id="polygon3-3-4-3"
           style="fill:#ef6c33" />
        <polygon
           class="st1"
           points="157.669,336.882 143.208,336.882 143.208,319.64 141.127,319.64 141.127,338.963 158.498,338.963 "
           id="polygon4-6-3-3"
           style="fill:#ef6c33" />
        <polygon
           class="st1"
           points="147.965,323.06 181.492,323.06 181.492,320.978 145.883,320.978 145.883,334.059 156.545,334.059 155.716,331.977 147.965,331.977 "
           id="polygon5-3-0-3"
           style="fill:#ef6c33" />
        <polygon
           class="st1"
           points="147.649,354.124 133.528,369.88 118.683,369.88 118.683,371.962 134.457,371.962 148.578,356.206 165.363,356.206 164.534,354.124 "
           id="polygon6-3-7-8"
           style="fill:#ef6c33" />
        <polygon
           class="st1"
           points="162.463,348.922 145.142,348.922 135.48,359.029 98.319,359.029 98.319,361.111 136.37,361.111 146.031,351.003 163.292,351.003 "
           id="polygon7-4-8-6"
           style="fill:#ef6c33" />
        <polygon
           class="st1"
           points="148.41,365.38 148.41,370.029 150.491,370.029 150.491,366.355 152.503,364.679 168.737,364.679 167.908,362.597 151.75,362.597 "
           id="polygon8-4-6-0"
           style="fill:#ef6c33" />
      </g>
    </g>
    <rect
       id="rect1511-5-6-4-8"
       data-name="rect151"
       class="st2"
       x="50.568043"
       y="161.69305"
       width="146.6794"
       height="29.897743"
       style="display:inline;fill:#f96e3e;fill-opacity:1;stroke:#f96e3e;stroke-width:0.594425;stroke-dasharray:none;stroke-opacity:1"
       ry="3.5" />
    <rect
       id="rect1511-5-6-2-3-8"
       data-name="rect151"
       class="st2"
       x="50.579468"
       y="123.33891"
       width="130.35088"
       height="31.087933"
       style="display:inline;fill:#841a6b;fill-opacity:1;stroke:#841a6b;stroke-width:0.615;stroke-linecap:butt;stroke-dasharray:none;stroke-dashoffset:0;stroke-opacity:1"
       ry="3.5" />
    <rect
       id="rect1511-5-6-2-3-0-9"
       data-name="rect151"
       class="st2"
       x="50.270832"
       y="105.83334"
       width="130.96875"
       height="9.1132631"
       style="display:inline;fill:#a62b89;fill-opacity:1;stroke:none;stroke-width:0.333767;stroke-linecap:butt;stroke-dasharray:none;stroke-dashoffset:0;stroke-opacity:1"
       ry="3.5" />
    <rect
       id="rect1513-2-1-7"
       data-name="rect151"
       class="st0"
       x="55.700554"
       y="166.96086"
       width="31.473747"
       height="19.571609"
       style="display:inline;fill:none;fill-opacity:1;stroke:#fff3f0;stroke-width:0.275872;stroke-dasharray:0.551745, 0.275872;stroke-dashoffset:0;stroke-opacity:1"
       ry="2.1683743" />
    <rect
       id="rect1513-2-9-4-7"
       data-name="rect151"
       class="st0"
       x="55.710358"
       y="125.82499"
       width="30.13131"
       height="16.849823"
       style="display:inline;fill:none;fill-opacity:1;stroke:#f96e3e;stroke-width:0.295771;stroke-dasharray:0.591543, 0.295771;stroke-dashoffset:0;stroke-opacity:1"
       ry="1.8668226" />
    <path
       d="m 137.48432,-190.66734 -0.8636,-2.144 q -0.045,-0.10496 -0.087,-0.25189 -0.018,0.072 -0.039,0.13794 -0.021,0.063 -0.045,0.11694 l -0.8636,2.14101 z m 0.93857,1.54129 H 138.186 q -0.042,0 -0.069,-0.021 -0.027,-0.024 -0.042,-0.06 l -0.49777,-1.23242 h -2.08404 l -0.49777,1.23242 q -0.012,0.033 -0.042,0.057 -0.03,0.024 -0.072,0.024 h -0.23389 l 1.73619,-4.24304 h 0.30286 z m 1.80216,-1.9551 q 0.27887,0 0.50077,-0.078 0.2219,-0.078 0.37483,-0.2159 0.15592,-0.13794 0.23689,-0.32385 0.084,-0.18891 0.084,-0.41081 0,-0.48877 -0.29986,-0.75265 -0.29986,-0.26388 -0.89659,-0.26388 h -0.78863 v 2.04505 z m 0,-2.28794 q 0.74666,0 1.12448,0.32685 0.38082,0.32685 0.38082,0.93257 0,0.27887 -0.10495,0.51276 -0.10495,0.23389 -0.29986,0.40481 -0.19491,0.16793 -0.47378,0.26388 -0.27887,0.093 -0.62671,0.093 h -0.78863 v 1.70921 h -0.30886 v -4.24304 z m 2.67776,4.24304 h -0.30886 v -4.24304 h 0.30886 z"
       id="text2-9-6"
       style="font-weight:300;font-size:5.99722px;line-height:1.25;font-family:Lato;-inkscape-font-specification:'Lato, Light';letter-spacing:0px;word-spacing:0px;fill:#841a6b;stroke-width:0.0555867"
       transform="rotate(90)"
       aria-label="API" />
    <path
       d="m 166.03134,-191.01144 q 0.27888,0 0.50077,-0.078 0.2219,-0.078 0.37483,-0.2159 0.15593,-0.13793 0.23689,-0.32385 0.084,-0.18891 0.084,-0.41081 0,-0.48877 -0.29986,-0.75265 -0.29986,-0.26388 -0.89659,-0.26388 h -0.78863 v 2.04506 z m 0,-2.28794 q 0.74666,0 1.12448,0.32684 0.38083,0.32685 0.38083,0.93257 0,0.27887 -0.10495,0.51276 -0.10496,0.2339 -0.29987,0.40482 -0.1949,0.16792 -0.47378,0.26387 -0.27887,0.093 -0.62671,0.093 h -0.78863 v 1.70921 h -0.30886 v -4.24303 z m 4.68683,3.98215 v 0.26088 h -2.31793 v -4.24303 h 0.30886 v 3.98215 z m 2.07504,0.042 q 0.30586,0 0.54575,-0.10495 0.24289,-0.10795 0.41081,-0.29686 0.16792,-0.18892 0.25488,-0.4438 0.09,-0.25788 0.09,-0.55474 v -2.62378 h 0.30586 v 2.62378 q 0,0.35084 -0.11095,0.6567 -0.11095,0.30286 -0.32085,0.53075 -0.20691,0.2249 -0.50677,0.35384 -0.29686,0.12894 -0.66869,0.12894 -0.37183,0 -0.67169,-0.12894 -0.29686,-0.12894 -0.50676,-0.35384 -0.20691,-0.22789 -0.31785,-0.53075 -0.11095,-0.30586 -0.11095,-0.6567 v -2.62378 h 0.30885 v 2.62078 q 0,0.29686 0.087,0.55474 0.09,0.25489 0.25489,0.4438 0.16792,0.18891 0.40781,0.29686 0.24288,0.10795 0.54874,0.10795 z m 6.19513,-1.70621 v 1.5083 q -0.31786,0.2249 -0.67769,0.34484 -0.35983,0.11995 -0.80962,0.11995 -0.50377,0 -0.90558,-0.15293 -0.40182,-0.15593 -0.68669,-0.4378 -0.28187,-0.28487 -0.43479,-0.68668 -0.14993,-0.40181 -0.14993,-0.89359 0,-0.49177 0.14693,-0.89058 0.14993,-0.40182 0.4258,-0.68369 0.27887,-0.28486 0.67169,-0.43779 0.39282,-0.15593 0.88459,-0.15593 0.24289,0 0.44679,0.033 0.20691,0.033 0.38382,0.099 0.17692,0.063 0.32985,0.15892 0.15293,0.093 0.29386,0.2159 l -0.084,0.13194 q -0.042,0.072 -0.12594,0.033 -0.045,-0.018 -0.12894,-0.084 -0.084,-0.066 -0.23089,-0.13794 -0.14693,-0.072 -0.36583,-0.12894 -0.2159,-0.057 -0.52776,-0.057 -0.41381,0 -0.74965,0.13193 -0.33285,0.13194 -0.56974,0.37783 -0.23389,0.24589 -0.36283,0.59972 -0.12594,0.35384 -0.12594,0.79463 0,0.4468 0.12594,0.80363 0.12894,0.35684 0.36883,0.60572 0.24289,0.24888 0.58773,0.38082 0.34484,0.13194 0.77664,0.13194 0.18891,0 0.34784,-0.024 0.16192,-0.024 0.30586,-0.066 0.14693,-0.045 0.28187,-0.10795 0.13793,-0.066 0.27887,-0.14693 v -1.14247 h -0.81263 q -0.033,0 -0.057,-0.021 -0.021,-0.021 -0.021,-0.048 v -0.16792 z m 1.32839,1.92511 h -0.30886 v -4.24303 h 0.30886 z m 4.5279,-4.24303 v 4.24303 h -0.14394 q -0.039,0 -0.066,-0.012 -0.024,-0.015 -0.048,-0.048 l -2.75572,-3.6823 q 0.009,0.09 0.009,0.17092 v 3.57135 h -0.26988 v -4.24303 h 0.15293 q 0.042,0 0.063,0.012 0.024,0.009 0.051,0.045 l 2.74972,3.6733 q -0.009,-0.09 -0.009,-0.17092 v -3.55935 z m 3.31346,0.51576 q -0.027,0.051 -0.078,0.051 -0.039,0 -0.10195,-0.054 -0.06,-0.057 -0.16492,-0.12294 -0.10496,-0.069 -0.26388,-0.12595 -0.15593,-0.057 -0.38682,-0.057 -0.2309,0 -0.40781,0.066 -0.17392,0.066 -0.29387,0.17992 -0.11694,0.11394 -0.17991,0.26387 -0.06,0.14993 -0.06,0.31486 0,0.2159 0.09,0.35683 0.093,0.14094 0.24289,0.23989 0.14993,0.099 0.33884,0.16792 0.19191,0.066 0.39282,0.13194 0.20091,0.066 0.38982,0.14693 0.19191,0.078 0.34184,0.19791 0.14993,0.11995 0.23989,0.29686 0.093,0.17392 0.093,0.4348 0,0.26688 -0.093,0.50377 -0.09,0.23389 -0.26388,0.40781 -0.17392,0.17392 -0.4258,0.27587 -0.25188,0.099 -0.57573,0.099 -0.41981,0 -0.72267,-0.14693 -0.30286,-0.14994 -0.53075,-0.40782 l 0.084,-0.13193 q 0.036,-0.045 0.084,-0.045 0.027,0 0.069,0.036 0.042,0.036 0.10195,0.09 0.06,0.051 0.14393,0.11395 0.084,0.06 0.19491,0.11394 0.11095,0.051 0.25488,0.087 0.14394,0.036 0.32685,0.036 0.25189,0 0.44979,-0.075 0.19791,-0.078 0.33285,-0.2099 0.13794,-0.13194 0.2099,-0.31186 0.072,-0.18291 0.072,-0.38982 0,-0.22489 -0.093,-0.36883 -0.09,-0.14693 -0.23989,-0.24288 -0.14993,-0.099 -0.34184,-0.16493 -0.18891,-0.066 -0.38982,-0.12894 -0.2009,-0.063 -0.39281,-0.14093 -0.18892,-0.078 -0.33885,-0.19791 -0.14993,-0.12294 -0.24289,-0.30286 -0.0899,-0.18292 -0.0899,-0.45579 0,-0.2129 0.081,-0.41081 0.081,-0.19791 0.23689,-0.34784 0.15593,-0.15293 0.38382,-0.24288 0.23089,-0.093 0.52476,-0.093 0.32985,0 0.59072,0.10495 0.26388,0.10495 0.47978,0.32085 z"
       id="text2-0-0-3"
       style="font-weight:300;font-size:5.99722px;line-height:1.25;font-family:Lato;-inkscape-font-specification:'Lato, Light';letter-spacing:0px;word-spacing:0px;fill:#fff3f0;stroke-width:0.0502287"
       transform="rotate(90)"
       aria-label="PLUGINS" />
    <g
       id="text3-8-3"
       style="font-size:5.64444px;line-height:1.25;font-family:Lato;-inkscape-font-specification:'Lato, Normal';text-align:center;letter-spacing:0px;word-spacing:0px;text-anchor:middle;fill:#fff3f0;stroke-width:0.264583"
       aria-label="ImageInference">
      <path
         d="m 64.262338,133.22449 h -0.547511 v -4.04424 h 0.547511 z m 0.872072,0 v -2.85891 h 0.301977 q 0.107244,0 0.132644,0.10442 l 0.03669,0.29351 q 0.158045,-0.19473 0.3556,-0.31891 0.197555,-0.12418 0.4572,-0.12418 0.287866,0 0.465666,0.16087 0.180622,0.16087 0.259644,0.43462 0.06209,-0.15522 0.158045,-0.26811 0.09878,-0.11289 0.220133,-0.18627 0.121355,-0.0734 0.256822,-0.10724 0.138289,-0.0339 0.2794,-0.0339 0.225777,0 0.400755,0.0734 0.1778,0.0706 0.299155,0.20884 0.124178,0.13829 0.189089,0.34149 0.06491,0.20038 0.06491,0.46003 v 1.82033 h -0.505177 v -1.82033 q 0,-0.33585 -0.146756,-0.508 -0.146755,-0.17498 -0.423333,-0.17498 -0.124178,0 -0.237066,0.0452 -0.110067,0.0423 -0.194734,0.127 -0.08467,0.0847 -0.135466,0.21449 -0.04798,0.127 -0.04798,0.29634 v 1.82033 h -0.505177 v -1.82033 q 0,-0.34432 -0.138289,-0.51365 -0.138289,-0.16933 -0.403578,-0.16933 -0.186266,0 -0.34431,0.1016 -0.158045,0.0988 -0.290689,0.27093 v 2.13078 z m 6.191952,-1.28694 q -0.347133,0.0113 -0.592667,0.0565 -0.24271,0.0423 -0.397933,0.11289 -0.152399,0.0705 -0.222955,0.16651 -0.06773,0.0959 -0.06773,0.21449 0,0.11289 0.03669,0.19473 0.03669,0.0819 0.09878,0.13547 0.06491,0.0508 0.149578,0.0762 0.08749,0.0226 0.186267,0.0226 0.132644,0 0.24271,-0.0254 0.110067,-0.0282 0.206023,-0.079 0.09878,-0.0508 0.186266,-0.12135 0.09031,-0.0706 0.174978,-0.16087 z m -1.622777,-1.16839 q 0.237067,-0.2286 0.510822,-0.34149 0.273755,-0.11289 0.606777,-0.11289 0.239889,0 0.426156,0.079 0.186266,0.079 0.313266,0.22013 0.127,0.14111 0.191911,0.34149 0.06491,0.20038 0.06491,0.44027 v 1.8288 h -0.222955 q -0.07338,0 -0.112889,-0.0226 -0.03951,-0.0254 -0.06209,-0.096 l -0.05644,-0.27093 q -0.112889,0.10442 -0.220134,0.18627 -0.107244,0.079 -0.225777,0.13546 -0.118533,0.0536 -0.254,0.0819 -0.132644,0.031 -0.296333,0.031 -0.166511,0 -0.313267,-0.0452 -0.146755,-0.048 -0.256822,-0.14111 -0.107244,-0.0931 -0.172155,-0.23425 -0.06209,-0.14393 -0.06209,-0.33866 0,-0.16934 0.09313,-0.32456 0.09313,-0.15804 0.301978,-0.2794 0.208844,-0.12135 0.544688,-0.19755 0.335845,-0.079 0.824089,-0.0903 v -0.22295 q 0,-0.33302 -0.143934,-0.50236 -0.143933,-0.17215 -0.42051,-0.17215 -0.186267,0 -0.313267,0.048 -0.124177,0.0452 -0.217311,0.10442 -0.09031,0.0564 -0.158044,0.10442 -0.06491,0.0452 -0.129822,0.0452 -0.0508,0 -0.08749,-0.0254 -0.03669,-0.0282 -0.06209,-0.0677 z m 3.874907,1.05833 q 0.1524,0 0.268111,-0.0423 0.115711,-0.0423 0.194733,-0.11854 0.07902,-0.0762 0.118533,-0.18062 0.03951,-0.10724 0.03951,-0.23424 0,-0.26247 -0.160866,-0.41769 -0.158044,-0.15523 -0.460022,-0.15523 -0.3048,0 -0.465666,0.15523 -0.158045,0.15522 -0.158045,0.41769 0,0.127 0.03951,0.23424 0.04233,0.10442 0.121356,0.18062 0.07902,0.0762 0.194733,0.11854 0.115711,0.0423 0.268111,0.0423 z m 0.905933,1.55222 q 0,-0.10442 -0.05927,-0.16933 -0.05927,-0.0649 -0.160866,-0.1016 -0.09878,-0.0367 -0.231423,-0.0508 -0.132644,-0.0169 -0.282222,-0.0254 -0.146755,-0.008 -0.299155,-0.0169 -0.1524,-0.008 -0.293511,-0.0282 -0.158044,0.0734 -0.259644,0.18627 -0.09878,0.11006 -0.09878,0.25964 0,0.096 0.04798,0.1778 0.0508,0.0847 0.1524,0.14393 0.1016,0.0621 0.254,0.096 0.155222,0.0367 0.364066,0.0367 0.2032,0 0.364066,-0.0367 0.160867,-0.0367 0.270934,-0.10442 0.112888,-0.0677 0.172155,-0.16087 0.05927,-0.0931 0.05927,-0.20602 z m 0.510822,-2.90124 v 0.18626 q 0,0.0931 -0.118534,0.11854 l -0.324555,0.0423 q 0.09595,0.18627 0.09595,0.41204 0,0.20885 -0.08184,0.381 -0.07902,0.16934 -0.220133,0.29069 -0.141111,0.12136 -0.338667,0.18627 -0.197555,0.0649 -0.428977,0.0649 -0.200378,0 -0.378177,-0.048 -0.09031,0.0565 -0.138289,0.12136 -0.04798,0.0621 -0.04798,0.127 0,0.1016 0.08184,0.15522 0.08467,0.0508 0.220134,0.0734 0.135466,0.0226 0.307622,0.0282 0.174977,0.006 0.355599,0.0198 0.183445,0.0113 0.3556,0.0423 0.174978,0.031 0.310444,0.1016 0.135467,0.0705 0.217311,0.19473 0.08467,0.12418 0.08467,0.32174 0,0.18344 -0.09313,0.35559 -0.09031,0.17216 -0.262467,0.3048 -0.172155,0.13547 -0.423333,0.21449 -0.248355,0.0819 -0.561622,0.0819 -0.313266,0 -0.54751,-0.0621 -0.234245,-0.0621 -0.389467,-0.16651 -0.155222,-0.10442 -0.234244,-0.24271 -0.0762,-0.13547 -0.0762,-0.28505 0,-0.21166 0.132644,-0.35842 0.132645,-0.14675 0.364067,-0.23424 -0.127,-0.0564 -0.2032,-0.14958 -0.07338,-0.096 -0.07338,-0.25682 0,-0.0621 0.02258,-0.127 0.02258,-0.0677 0.06773,-0.13265 0.04798,-0.0677 0.115711,-0.127 0.06773,-0.0593 0.158045,-0.10442 -0.211667,-0.11853 -0.3302,-0.31327 -0.118533,-0.19755 -0.118533,-0.4572 0,-0.20884 0.07902,-0.37817 0.08184,-0.17216 0.225777,-0.29069 0.143934,-0.12136 0.341489,-0.18627 0.200378,-0.0649 0.437444,-0.0649 0.186267,0 0.347133,0.0423 0.160867,0.0395 0.293511,0.11854 z m 2.390426,1.00471 q 0,-0.17498 -0.0508,-0.31891 -0.04798,-0.14676 -0.143933,-0.25118 -0.09313,-0.10725 -0.2286,-0.16369 -0.135467,-0.0593 -0.307622,-0.0593 -0.361244,0 -0.572911,0.21167 -0.208844,0.20884 -0.259644,0.58138 z m 0.4064,1.34055 q -0.09313,0.11289 -0.222956,0.19756 -0.129822,0.0818 -0.2794,0.13546 -0.146755,0.0536 -0.304799,0.079 -0.158045,0.0282 -0.313267,0.0282 -0.296333,0 -0.54751,-0.0988 -0.248356,-0.1016 -0.4318,-0.29351 -0.180622,-0.19473 -0.282222,-0.47978 -0.1016,-0.28504 -0.1016,-0.65475 0,-0.29916 0.09031,-0.5588 0.09313,-0.25965 0.265289,-0.44874 0.172155,-0.19191 0.42051,-0.29915 0.248356,-0.11007 0.5588,-0.11007 0.256822,0 0.474133,0.0875 0.220133,0.0847 0.378177,0.24836 0.160867,0.16086 0.251178,0.40075 0.09031,0.23707 0.09031,0.54187 0,0.11853 -0.0254,0.15804 -0.0254,0.0395 -0.09596,0.0395 H 75.80523 q 0.0085,0.27094 0.07338,0.47131 0.06773,0.20038 0.186267,0.33585 0.118533,0.13264 0.282222,0.20038 0.163689,0.0649 0.366889,0.0649 0.189088,0 0.324555,-0.0423 0.138289,-0.0452 0.237066,-0.0959 0.09878,-0.0508 0.163689,-0.0931 0.06773,-0.0452 0.115711,-0.0452 0.06209,0 0.09596,0.048 z"
         id="path1" />
      <path
         d="m 60.089685,139.28004 h -0.547511 v -4.04424 h 0.547511 z m 1.346204,-2.44404 q 0.09313,-0.10442 0.197556,-0.18909 0.104422,-0.0847 0.220133,-0.14393 0.118533,-0.0621 0.248355,-0.0931 0.132644,-0.0339 0.285044,-0.0339 0.234245,0 0.412044,0.079 0.180622,0.0762 0.299156,0.22014 0.121355,0.14111 0.183444,0.34148 0.06209,0.20038 0.06209,0.44309 v 1.82033 h -0.505178 v -1.82033 q 0,-0.32455 -0.149577,-0.50235 -0.146756,-0.18062 -0.448733,-0.18062 -0.222956,0 -0.417689,0.10724 -0.191911,0.10724 -0.355599,0.29069 v 2.10537 h -0.505178 v -2.8589 h 0.301978 q 0.107244,0 0.132644,0.10442 z m 2.816582,2.44404 v -2.42993 l -0.316089,-0.0367 q -0.05927,-0.0141 -0.09878,-0.0423 -0.03669,-0.031 -0.03669,-0.0875 v -0.20602 h 0.451555 V 136.201 q 0,-0.24553 0.06773,-0.43462 0.07056,-0.19191 0.197556,-0.32173 0.129822,-0.13265 0.310444,-0.20038 0.180622,-0.0677 0.4064,-0.0677 0.191911,0 0.352777,0.0564 l -0.01129,0.25118 q -0.0056,0.0677 -0.0762,0.0734 -0.06773,0.006 -0.183444,0.006 -0.129822,0 -0.237067,0.0339 -0.104422,0.0339 -0.180622,0.11006 -0.0762,0.0762 -0.118533,0.20038 -0.03951,0.12418 -0.03951,0.30762 v 0.26247 h 0.824088 v 0.36407 h -0.807155 v 2.43839 z m 3.61244,-1.74131 q 0,-0.17497 -0.0508,-0.31891 -0.04798,-0.14675 -0.143933,-0.25117 -0.09313,-0.10725 -0.2286,-0.16369 -0.135467,-0.0593 -0.307622,-0.0593 -0.361244,0 -0.572911,0.21167 -0.208844,0.20884 -0.259644,0.58137 z m 0.406399,1.34056 q -0.09313,0.11289 -0.222955,0.19755 -0.129822,0.0819 -0.2794,0.13547 -0.146755,0.0536 -0.3048,0.079 -0.158044,0.0282 -0.313266,0.0282 -0.296333,0 -0.547511,-0.0988 -0.248355,-0.1016 -0.431799,-0.29351 -0.180622,-0.19474 -0.282222,-0.47978 -0.1016,-0.28504 -0.1016,-0.65476 0,-0.29915 0.09031,-0.5588 0.09313,-0.25964 0.265288,-0.44873 0.172156,-0.19191 0.420511,-0.29915 0.248356,-0.11007 0.5588,-0.11007 0.256822,0 0.474133,0.0875 0.220133,0.0847 0.378177,0.24835 0.160867,0.16087 0.251178,0.40076 0.09031,0.23707 0.09031,0.54187 0,0.11853 -0.0254,0.15804 -0.0254,0.0395 -0.09596,0.0395 h -1.910643 q 0.0085,0.27093 0.07338,0.47131 0.06773,0.20038 0.186267,0.33585 0.118533,0.13264 0.282222,0.20037 0.163688,0.0649 0.366888,0.0649 0.189089,0 0.324556,-0.0423 0.138288,-0.0452 0.237066,-0.096 0.09878,-0.0508 0.163689,-0.0931 0.06773,-0.0451 0.115711,-0.0451 0.06209,0 0.09596,0.048 z m 1.137355,-1.88524 q 0.135466,-0.29351 0.333022,-0.4572 0.197555,-0.16651 0.482599,-0.16651 0.09031,0 0.172156,0.0197 0.08467,0.0198 0.149578,0.0621 l -0.03669,0.37536 q -0.01693,0.0705 -0.08467,0.0705 -0.03951,0 -0.115711,-0.0169 -0.0762,-0.0169 -0.172155,-0.0169 -0.135467,0 -0.242711,0.0395 -0.104422,0.0395 -0.189089,0.11853 -0.08184,0.0762 -0.149578,0.19191 -0.06491,0.11289 -0.118533,0.25964 v 1.80622 H 68.93171 v -2.8589 h 0.287866 q 0.08184,0 0.112889,0.031 0.03104,0.031 0.04233,0.10724 z m 3.375376,0.54468 q 0,-0.17497 -0.0508,-0.31891 -0.04798,-0.14675 -0.143934,-0.25117 -0.09313,-0.10725 -0.228599,-0.16369 -0.135467,-0.0593 -0.307622,-0.0593 -0.361245,0 -0.572911,0.21167 -0.208844,0.20884 -0.259644,0.58137 z m 0.406399,1.34056 q -0.09313,0.11289 -0.222955,0.19755 -0.129822,0.0819 -0.2794,0.13547 -0.146755,0.0536 -0.3048,0.079 -0.158044,0.0282 -0.313266,0.0282 -0.296333,0 -0.547511,-0.0988 -0.248355,-0.1016 -0.4318,-0.29351 -0.180622,-0.19474 -0.282222,-0.47978 -0.101599,-0.28504 -0.101599,-0.65476 0,-0.29915 0.09031,-0.5588 0.09313,-0.25964 0.265288,-0.44873 0.172156,-0.19191 0.420511,-0.29915 0.248355,-0.11007 0.5588,-0.11007 0.256822,0 0.474133,0.0875 0.220133,0.0847 0.378177,0.24835 0.160867,0.16087 0.251178,0.40076 0.09031,0.23707 0.09031,0.54187 0,0.11853 -0.0254,0.15804 -0.0254,0.0395 -0.09596,0.0395 h -1.910643 q 0.0085,0.27093 0.07338,0.47131 0.06773,0.20038 0.186267,0.33585 0.118533,0.13264 0.282222,0.20037 0.163688,0.0649 0.366888,0.0649 0.189089,0 0.324555,-0.0423 0.138289,-0.0452 0.237067,-0.096 0.09878,-0.0508 0.163689,-0.0931 0.06773,-0.0451 0.115711,-0.0451 0.06209,0 0.09596,0.048 z m 1.134532,-2.04329 q 0.09313,-0.10442 0.197555,-0.18909 0.104423,-0.0847 0.220134,-0.14393 0.118533,-0.0621 0.248355,-0.0931 0.132644,-0.0339 0.285044,-0.0339 0.234244,0 0.412044,0.079 0.180622,0.0762 0.299156,0.22014 0.121355,0.14111 0.183444,0.34148 0.06209,0.20038 0.06209,0.44309 v 1.82033 h -0.505178 v -1.82033 q 0,-0.32455 -0.149577,-0.50235 -0.146756,-0.18062 -0.448733,-0.18062 -0.222956,0 -0.417689,0.10724 -0.191911,0.10724 -0.3556,0.29069 v 2.10537 h -0.505177 v -2.8589 h 0.301978 q 0.107244,0 0.132644,0.10442 z m 4.665133,0.0931 q -0.02258,0.031 -0.04515,0.048 -0.02258,0.0169 -0.06209,0.0169 -0.04233,0 -0.09313,-0.0339 -0.0508,-0.0367 -0.127,-0.079 -0.07338,-0.0423 -0.183445,-0.0762 -0.107244,-0.0367 -0.265288,-0.0367 -0.211667,0 -0.372533,0.0762 -0.160867,0.0734 -0.270934,0.21449 -0.107244,0.14111 -0.163688,0.34149 -0.05362,0.20037 -0.05362,0.44873 0,0.25964 0.05927,0.46284 0.05927,0.20038 0.166511,0.33867 0.110067,0.13547 0.262467,0.20884 0.155222,0.0706 0.347133,0.0706 0.183444,0 0.301977,-0.0423 0.118533,-0.0452 0.194733,-0.0988 0.07902,-0.0536 0.129823,-0.096 0.05362,-0.0451 0.104422,-0.0451 0.06209,0 0.09596,0.048 l 0.141111,0.18345 q -0.09313,0.11571 -0.211666,0.19755 -0.118534,0.0819 -0.256822,0.13829 -0.135467,0.0536 -0.285045,0.079 -0.149577,0.0254 -0.304799,0.0254 -0.268111,0 -0.499533,-0.0988 -0.2286,-0.0988 -0.397933,-0.28505 -0.169334,-0.18909 -0.265289,-0.46284 -0.09596,-0.27376 -0.09596,-0.62371 0,-0.31891 0.08749,-0.58985 0.09031,-0.27093 0.259645,-0.46566 0.172155,-0.19756 0.42051,-0.30762 0.251178,-0.11007 0.575733,-0.11007 0.301978,0 0.530578,0.0988 0.231422,0.0959 0.409222,0.27375 z m 2.568221,0.60959 q 0,-0.17497 -0.0508,-0.31891 -0.04798,-0.14675 -0.143933,-0.25117 -0.09313,-0.10725 -0.2286,-0.16369 -0.135467,-0.0593 -0.307622,-0.0593 -0.361244,0 -0.572911,0.21167 -0.208844,0.20884 -0.259644,0.58137 z m 0.4064,1.34056 q -0.09313,0.11289 -0.222956,0.19755 -0.129822,0.0819 -0.2794,0.13547 -0.146755,0.0536 -0.304799,0.079 -0.158045,0.0282 -0.313267,0.0282 -0.296333,0 -0.547511,-0.0988 -0.248355,-0.1016 -0.431799,-0.29351 -0.180622,-0.19474 -0.282222,-0.47978 -0.1016,-0.28504 -0.1016,-0.65476 0,-0.29915 0.09031,-0.5588 0.09313,-0.25964 0.265289,-0.44873 0.172155,-0.19191 0.42051,-0.29915 0.248356,-0.11007 0.5588,-0.11007 0.256822,0 0.474133,0.0875 0.220133,0.0847 0.378177,0.24835 0.160867,0.16087 0.251178,0.40076 0.09031,0.23707 0.09031,0.54187 0,0.11853 -0.0254,0.15804 -0.0254,0.0395 -0.09596,0.0395 h -1.910643 q 0.0085,0.27093 0.07338,0.47131 0.06773,0.20038 0.186267,0.33585 0.118533,0.13264 0.282222,0.20037 0.163689,0.0649 0.366888,0.0649 0.189089,0 0.324556,-0.0423 0.138289,-0.0452 0.237066,-0.096 0.09878,-0.0508 0.163689,-0.0931 0.06773,-0.0451 0.115711,-0.0451 0.06209,0 0.09596,0.048 z"
         id="path2" />
    </g>
    <rect
       id="rect1513-2-9-6-66-2"
       data-name="rect151"
       class="st0"
       x="90.115509"
       y="125.8343"
       width="34.081448"
       height="16.831205"
       style="display:inline;fill:none;fill-opacity:1;stroke:#f96e3e;stroke-width:0.314388;stroke-dasharray:0.628777, 0.314388;stroke-dashoffset:0;stroke-opacity:1"
       ry="1.86476" />
    <path
       d="m 96.330833,132.70332 h -1.30951 v 3.58422 h -0.544689 v -3.58422 h -1.312332 v -0.46002 h 3.166531 z m 1.704622,1.84291 q 0,-0.17498 -0.0508,-0.31891 -0.04798,-0.14676 -0.143933,-0.25118 -0.09313,-0.10725 -0.2286,-0.16369 -0.135467,-0.0593 -0.307622,-0.0593 -0.361244,0 -0.572911,0.21167 -0.208844,0.20884 -0.259644,0.58138 z m 0.406399,1.34055 q -0.09313,0.11289 -0.222955,0.19756 -0.129822,0.0818 -0.2794,0.13546 -0.146755,0.0536 -0.3048,0.079 -0.158044,0.0282 -0.313266,0.0282 -0.296333,0 -0.547511,-0.0988 -0.248355,-0.1016 -0.431799,-0.29351 -0.180622,-0.19473 -0.282222,-0.47978 -0.1016,-0.28504 -0.1016,-0.65475 0,-0.29916 0.09031,-0.5588 0.09313,-0.25965 0.265288,-0.44874 0.172156,-0.19191 0.420511,-0.29915 0.248356,-0.11007 0.5588,-0.11007 0.256822,0 0.474133,0.0875 0.220133,0.0847 0.378177,0.24836 0.160867,0.16086 0.251178,0.40075 0.09031,0.23707 0.09031,0.54187 0,0.11853 -0.0254,0.15804 -0.0254,0.0395 -0.09596,0.0395 h -1.910643 q 0.0085,0.27094 0.07338,0.47131 0.06773,0.20038 0.186267,0.33585 0.118533,0.13264 0.282222,0.20038 0.163689,0.0649 0.366888,0.0649 0.189089,0 0.324556,-0.0423 0.138288,-0.0452 0.237066,-0.0959 0.09878,-0.0508 0.163689,-0.0931 0.06773,-0.0452 0.115711,-0.0452 0.06209,0 0.09596,0.048 z m 1.134532,-2.04329 q 0.09313,-0.10442 0.197556,-0.18908 0.104422,-0.0847 0.220133,-0.14394 0.118535,-0.0621 0.248355,-0.0931 0.13264,-0.0339 0.28504,-0.0339 0.23425,0 0.41205,0.079 0.18062,0.0762 0.29915,0.22014 0.12136,0.14111 0.18345,0.34149 0.0621,0.20037 0.0621,0.44308 v 1.82034 h -0.50518 v -1.82034 q 0,-0.32455 -0.14958,-0.50235 -0.14675,-0.18062 -0.44873,-0.18062 -0.22296,0 -0.41769,0.10724 -0.191911,0.10725 -0.355599,0.29069 v 2.10538 h -0.505178 v -2.85891 h 0.301978 q 0.107244,0 0.132644,0.10442 z m 4.340574,0.0564 q -0.0339,0.0621 -0.10442,0.0621 -0.0423,0 -0.096,-0.031 -0.0536,-0.031 -0.13265,-0.0677 -0.0762,-0.0395 -0.18344,-0.0706 -0.10725,-0.0339 -0.254,-0.0339 -0.127,0 -0.2286,0.0339 -0.1016,0.031 -0.17498,0.0875 -0.0706,0.0565 -0.11007,0.13265 -0.0367,0.0734 -0.0367,0.16086 0,0.11007 0.0621,0.18345 0.0649,0.0734 0.16934,0.127 0.10442,0.0536 0.23706,0.096 0.13265,0.0395 0.27094,0.0875 0.14111,0.0452 0.27375,0.1016 0.13265,0.0564 0.23707,0.14111 0.10442,0.0847 0.16651,0.20885 0.0649,0.12135 0.0649,0.29351 0,0.19755 -0.0706,0.36689 -0.0706,0.16651 -0.20884,0.29069 -0.13829,0.12135 -0.33867,0.19191 -0.20037,0.0706 -0.46284,0.0706 -0.29916,0 -0.54187,-0.096 -0.24271,-0.0988 -0.41204,-0.25118 l 0.11853,-0.19191 q 0.0226,-0.0367 0.0536,-0.0565 0.0311,-0.0197 0.079,-0.0197 0.0508,0 0.10724,0.0395 0.0564,0.0395 0.13547,0.0875 0.0818,0.048 0.19755,0.0875 0.11571,0.0395 0.28787,0.0395 0.14676,0 0.25682,-0.0367 0.11007,-0.0395 0.18345,-0.10442 0.0734,-0.0649 0.10724,-0.14958 0.0367,-0.0847 0.0367,-0.18062 0,-0.11854 -0.0649,-0.19474 -0.0621,-0.079 -0.16651,-0.13264 -0.10442,-0.0564 -0.23989,-0.096 -0.13265,-0.0423 -0.27376,-0.0875 -0.13829,-0.0452 -0.27375,-0.1016 -0.13265,-0.0593 -0.23707,-0.14676 -0.10442,-0.0875 -0.16933,-0.21449 -0.0621,-0.12982 -0.0621,-0.31327 0,-0.16368 0.0677,-0.31326 0.0677,-0.1524 0.19756,-0.26529 0.12982,-0.11571 0.31891,-0.18344 0.18909,-0.0677 0.4318,-0.0677 0.28222,0 0.50518,0.0903 0.22577,0.0875 0.38946,0.24271 z m 1.98403,-0.51647 q 0.31326,0 0.56444,0.10442 0.25118,0.10443 0.42898,0.29634 0.1778,0.19191 0.27093,0.46566 0.096,0.27094 0.096,0.60678 0,0.33867 -0.096,0.6096 -0.0931,0.27093 -0.27093,0.46284 -0.1778,0.19192 -0.42898,0.29634 -0.25118,0.1016 -0.56444,0.1016 -0.31609,0 -0.57009,-0.1016 -0.25118,-0.10442 -0.42898,-0.29634 -0.1778,-0.19191 -0.27375,-0.46284 -0.0931,-0.27093 -0.0931,-0.6096 0,-0.33584 0.0931,-0.60678 0.096,-0.27375 0.27375,-0.46566 0.1778,-0.19191 0.42898,-0.29634 0.254,-0.10442 0.57009,-0.10442 z m 0,2.55129 q 0.42333,0 0.63218,-0.28222 0.20884,-0.28505 0.20884,-0.79305 0,-0.51082 -0.20884,-0.79586 -0.20885,-0.28505 -0.63218,-0.28505 -0.21449,0 -0.37536,0.0734 -0.15804,0.0734 -0.26529,0.21167 -0.10442,0.13829 -0.15804,0.34149 -0.0508,0.20037 -0.0508,0.45437 0,0.508 0.20884,0.79305 0.21167,0.28222 0.64065,0.28222 z m 2.47226,-1.93322 q 0.13547,-0.29351 0.33302,-0.4572 0.19756,-0.16651 0.4826,-0.16651 0.0903,0 0.17216,0.0198 0.0847,0.0198 0.14957,0.0621 l -0.0367,0.37536 q -0.0169,0.0705 -0.0847,0.0705 -0.0395,0 -0.11571,-0.0169 -0.0762,-0.0169 -0.17216,-0.0169 -0.13546,0 -0.24271,0.0395 -0.10442,0.0395 -0.18909,0.11853 -0.0818,0.0762 -0.14957,0.19191 -0.0649,0.11289 -0.11854,0.25965 v 1.80622 h -0.50518 v -2.85891 h 0.28787 q 0.0818,0 0.11289,0.031 0.031,0.0311 0.0423,0.10725 z m 1.76953,2.286 v -2.42993 l -0.31608,-0.0367 q -0.0621,-0.0141 -0.0988,-0.0423 -0.0367,-0.031 -0.0367,-0.0875 v -0.20602 h 0.45155 v -0.1524 q 0,-0.23706 0.0706,-0.44873 0.0734,-0.21449 0.22013,-0.37253 0.14676,-0.15805 0.36689,-0.25118 0.22013,-0.0931 0.51365,-0.0931 0.21731,0 0.41768,0.0169 0.2032,0.0169 0.39229,0.0197 h 0.34149 v 4.08376 h -0.49953 v -3.73098 q -0.1524,-0.006 -0.30762,-0.0141 -0.1524,-0.008 -0.26811,-0.008 -0.36689,0 -0.56445,0.21167 -0.19473,0.20884 -0.19473,0.58702 v 0.1524 h 0.74224 v 0.36407 h -0.72813 v 2.4384 z m 4.34058,-2.90407 q 0.31327,0 0.56444,0.10442 0.25118,0.10443 0.42898,0.29634 0.1778,0.19191 0.27093,0.46566 0.096,0.27094 0.096,0.60678 0,0.33867 -0.096,0.6096 -0.0931,0.27093 -0.27093,0.46284 -0.1778,0.19192 -0.42898,0.29634 -0.25117,0.1016 -0.56444,0.1016 -0.31609,0 -0.57009,-0.1016 -0.25118,-0.10442 -0.42898,-0.29634 -0.1778,-0.19191 -0.27375,-0.46284 -0.0931,-0.27093 -0.0931,-0.6096 0,-0.33584 0.0931,-0.60678 0.096,-0.27375 0.27375,-0.46566 0.1778,-0.19191 0.42898,-0.29634 0.254,-0.10442 0.57009,-0.10442 z m 0,2.55129 q 0.42333,0 0.63218,-0.28222 0.20884,-0.28505 0.20884,-0.79305 0,-0.51082 -0.20884,-0.79586 -0.20885,-0.28505 -0.63218,-0.28505 -0.21449,0 -0.37536,0.0734 -0.15804,0.0734 -0.26528,0.21167 -0.10443,0.13829 -0.15805,0.34149 -0.0508,0.20037 -0.0508,0.45437 0,0.508 0.20885,0.79305 0.21166,0.28222 0.64064,0.28222 z m 5.89562,-2.50613 -0.92569,2.85891 h -0.39793 q -0.0734,0 -0.1016,-0.096 l -0.63218,-1.93886 q -0.0226,-0.0649 -0.0367,-0.12983 -0.0141,-0.0677 -0.0282,-0.13264 -0.0141,0.0649 -0.0282,0.13264 -0.0141,0.0649 -0.0367,0.13265 l -0.64347,1.93604 q -0.0254,0.096 -0.11289,0.096 h -0.37818 l -0.92568,-2.85891 h 0.39511 q 0.0593,0 0.0988,0.031 0.0423,0.0311 0.0564,0.0734 l 0.54751,1.84009 q 0.048,0.2032 0.0762,0.38382 0.0254,-0.0931 0.0508,-0.18909 0.0282,-0.0959 0.0593,-0.19473 l 0.60395,-1.85138 q 0.0141,-0.0423 0.048,-0.0705 0.0367,-0.0282 0.0875,-0.0282 h 0.22013 q 0.0564,0 0.0931,0.0282 0.0367,0.0282 0.0508,0.0705 l 0.58985,1.85138 q 0.031,0.0988 0.0564,0.19473 0.0254,0.096 0.048,0.18909 0.0141,-0.0931 0.0339,-0.18627 0.0226,-0.096 0.048,-0.19755 l 0.5588,-1.84009 q 0.0141,-0.0452 0.0536,-0.0734 0.0395,-0.031 0.0931,-0.031 z"
       id="text3-1-4-5"
       style="font-size:5.64444px;line-height:1.25;font-family:Lato;-inkscape-font-specification:'Lato, Normal';text-align:center;letter-spacing:0px;word-spacing:0px;text-anchor:middle;fill:#fff3f0;stroke-width:0.264583"
       aria-label="Tensorflow" />
    <rect
       id="rect1513-2-9-6-6-5-0"
       data-name="rect151"
       class="st0"
       x="128.4463"
       y="125.80058"
       width="20.919683"
       height="16.950029"
       style="display:inline;fill:none;fill-opacity:1;stroke:#f96e3e;stroke-width:0.247179;stroke-dasharray:0.49436, 0.247179;stroke-dashoffset:0;stroke-opacity:1"
       ry="1.8779249" />
    <path
       d="m 135.48562,132.75022 h -1.30951 v 3.58422 h -0.54469 v -3.58422 h -1.31233 v -0.46002 h 3.16653 z m 0.99624,0.68016 q 0.31327,0 0.56445,0.10442 0.25118,0.10442 0.42898,0.29633 0.1778,0.19191 0.27093,0.46567 0.096,0.27093 0.096,0.60678 0,0.33866 -0.096,0.6096 -0.0931,0.27093 -0.27093,0.46284 -0.1778,0.19191 -0.42898,0.29633 -0.25118,0.1016 -0.56445,0.1016 -0.31608,0 -0.57008,-0.1016 -0.25118,-0.10442 -0.42898,-0.29633 -0.1778,-0.19191 -0.27376,-0.46284 -0.0931,-0.27094 -0.0931,-0.6096 0,-0.33585 0.0931,-0.60678 0.096,-0.27376 0.27376,-0.46567 0.1778,-0.19191 0.42898,-0.29633 0.254,-0.10442 0.57008,-0.10442 z m 0,2.55128 q 0.42334,0 0.63218,-0.28222 0.20885,-0.28504 0.20885,-0.79304 0,-0.51082 -0.20885,-0.79587 -0.20884,-0.28504 -0.63218,-0.28504 -0.21448,0 -0.37535,0.0734 -0.15805,0.0734 -0.26529,0.21166 -0.10442,0.13829 -0.15804,0.34149 -0.0508,0.20038 -0.0508,0.45438 0,0.508 0.20884,0.79304 0.21167,0.28222 0.64064,0.28222 z m 2.47227,-1.93322 q 0.13546,-0.29351 0.33302,-0.4572 0.19755,-0.16651 0.4826,-0.16651 0.0903,0 0.17215,0.0198 0.0847,0.0197 0.14958,0.0621 l -0.0367,0.37535 q -0.0169,0.0706 -0.0847,0.0706 -0.0395,0 -0.11571,-0.0169 -0.0762,-0.0169 -0.17215,-0.0169 -0.13547,0 -0.24271,0.0395 -0.10443,0.0395 -0.18909,0.11854 -0.0819,0.0762 -0.14958,0.19191 -0.0649,0.11289 -0.11853,0.25964 v 1.80622 h -0.50518 v -2.85891 h 0.28787 q 0.0818,0 0.11289,0.0311 0.031,0.031 0.0423,0.10724 z m 3.45157,-0.0649 q -0.0226,0.031 -0.0452,0.048 -0.0226,0.0169 -0.0621,0.0169 -0.0423,0 -0.0931,-0.0339 -0.0508,-0.0367 -0.127,-0.079 -0.0734,-0.0423 -0.18344,-0.0762 -0.10724,-0.0367 -0.26529,-0.0367 -0.21167,0 -0.37253,0.0762 -0.16087,0.0734 -0.27094,0.21448 -0.10724,0.14112 -0.16368,0.34149 -0.0536,0.20038 -0.0536,0.44874 0,0.25964 0.0593,0.46284 0.0593,0.20038 0.16651,0.33867 0.11007,0.13546 0.26247,0.20884 0.15522,0.0706 0.34713,0.0706 0.18345,0 0.30198,-0.0423 0.11853,-0.0452 0.19473,-0.0988 0.079,-0.0536 0.12982,-0.096 0.0536,-0.0452 0.10443,-0.0452 0.0621,0 0.0959,0.048 l 0.14111,0.18345 q -0.0931,0.11571 -0.21166,0.19755 -0.11854,0.0819 -0.25683,0.13829 -0.13546,0.0536 -0.28504,0.079 -0.14958,0.0254 -0.3048,0.0254 -0.26811,0 -0.49953,-0.0988 -0.2286,-0.0988 -0.39794,-0.28505 -0.16933,-0.18909 -0.26528,-0.46284 -0.096,-0.27376 -0.096,-0.62371 0,-0.31891 0.0875,-0.58985 0.0903,-0.27093 0.25964,-0.46566 0.17216,-0.19756 0.42051,-0.30763 0.25118,-0.11006 0.57574,-0.11006 0.30197,0 0.53057,0.0988 0.23143,0.096 0.40923,0.27375 z m 1.21074,-0.127 q 0.18344,-0.19473 0.4064,-0.31044 0.22295,-0.11571 0.51364,-0.11571 0.23425,0 0.41205,0.079 0.18062,0.0762 0.29915,0.22013 0.12136,0.14111 0.18345,0.34149 0.0621,0.20038 0.0621,0.44309 v 1.82033 h -0.50518 v -1.82033 q 0,-0.32456 -0.14958,-0.50235 -0.14676,-0.18063 -0.44873,-0.18063 -0.22296,0 -0.41769,0.10725 -0.19191,0.10724 -0.3556,0.29069 v 2.10537 h -0.50518 v -4.15713 h 0.50518 z"
       id="text3-1-1-0-5"
       style="font-size:5.64444px;line-height:1.25;font-family:Lato;-inkscape-font-specification:'Lato, Normal';text-align:center;letter-spacing:0px;word-spacing:0px;text-anchor:middle;fill:#fff3f0;stroke-width:0.264583"
       aria-label="Torch" />
    <rect
       id="rect1513-2-9-6-6-6-8-4"
       data-name="rect151"
       class="st0"
       x="153.58519"
       y="125.80396"
       width="22.235855"
       height="16.802954"
       style="display:inline;fill:none;fill-opacity:1;stroke:#f96e3e;stroke-width:0.253728;stroke-dasharray:0.507459, 0.253728;stroke-dashoffset:0;stroke-opacity:1"
       ry="1.8616303" />
    <path
       d="m 159.60198,133.8216 v 1.55222 q -0.3048,0.22014 -0.65194,0.3302 -0.34431,0.10725 -0.75635,0.10725 -0.48825,0 -0.88053,-0.14958 -0.39229,-0.1524 -0.67169,-0.42333 -0.27658,-0.27376 -0.42616,-0.65476 -0.14958,-0.381 -0.14958,-0.8382 0,-0.46284 0.14394,-0.84384 0.14675,-0.381 0.41486,-0.65193 0.26812,-0.27376 0.65194,-0.42334 0.38382,-0.14957 0.85795,-0.14957 0.23989,0 0.44591,0.0367 0.20603,0.0339 0.381,0.1016 0.17498,0.0649 0.32456,0.16086 0.14958,0.0931 0.2794,0.21167 l -0.15522,0.24835 q -0.0367,0.0565 -0.096,0.0734 -0.0564,0.0141 -0.127,-0.0282 -0.0677,-0.0395 -0.15522,-0.096 -0.0875,-0.0564 -0.21449,-0.10724 -0.12418,-0.0536 -0.29633,-0.0903 -0.16934,-0.0367 -0.40358,-0.0367 -0.34149,0 -0.61807,0.11289 -0.27657,0.11006 -0.47131,0.31891 -0.19473,0.20602 -0.29915,0.50235 -0.10443,0.29352 -0.10443,0.6604 0,0.381 0.10725,0.68298 0.11007,0.29916 0.31044,0.51082 0.2032,0.20885 0.49107,0.31891 0.28787,0.11007 0.64629,0.11007 0.28222,0 0.49953,-0.0621 0.22013,-0.0649 0.42898,-0.1778 v -0.889 h -0.62936 q -0.0536,0 -0.0875,-0.031 -0.031,-0.031 -0.031,-0.0762 v -0.31045 z m 2.59925,0.2032 q 0,-0.17497 -0.0508,-0.31891 -0.048,-0.14675 -0.14393,-0.25117 -0.0931,-0.10725 -0.2286,-0.16369 -0.13547,-0.0593 -0.30762,-0.0593 -0.36124,0 -0.57291,0.21167 -0.20885,0.20884 -0.25965,0.58137 z m 0.4064,1.34056 q -0.0931,0.11289 -0.22295,0.19755 -0.12982,0.0819 -0.2794,0.13547 -0.14676,0.0536 -0.3048,0.079 -0.15805,0.0282 -0.31327,0.0282 -0.29633,0 -0.54751,-0.0988 -0.24835,-0.1016 -0.4318,-0.29351 -0.18062,-0.19474 -0.28222,-0.47978 -0.1016,-0.28505 -0.1016,-0.65476 0,-0.29915 0.0903,-0.5588 0.0931,-0.25964 0.26529,-0.44873 0.17216,-0.19191 0.42051,-0.29915 0.24836,-0.11007 0.5588,-0.11007 0.25682,0 0.47413,0.0875 0.22014,0.0847 0.37818,0.24835 0.16087,0.16087 0.25118,0.40076 0.0903,0.23706 0.0903,0.54186 0,0.11854 -0.0254,0.15805 -0.0254,0.0395 -0.096,0.0395 h -1.91064 q 0.008,0.27093 0.0734,0.47131 0.0677,0.20038 0.18627,0.33584 0.11853,0.13265 0.28222,0.20038 0.16369,0.0649 0.36689,0.0649 0.18908,0 0.32455,-0.0423 0.13829,-0.0452 0.23707,-0.096 0.0988,-0.0508 0.16369,-0.0931 0.0677,-0.0452 0.11571,-0.0452 0.0621,0 0.096,0.048 z m 1.13454,-2.04329 q 0.0931,-0.10442 0.19755,-0.18909 0.10442,-0.0847 0.22013,-0.14393 0.11854,-0.0621 0.24836,-0.0931 0.13264,-0.0339 0.28504,-0.0339 0.23425,0 0.41205,0.079 0.18062,0.0762 0.29915,0.22013 0.12136,0.14112 0.18345,0.34149 0.0621,0.20038 0.0621,0.44309 v 1.82033 h -0.50518 v -1.82033 q 0,-0.32455 -0.14958,-0.50235 -0.14675,-0.18063 -0.44873,-0.18063 -0.22296,0 -0.41769,0.10725 -0.19191,0.10724 -0.3556,0.29069 v 2.10537 h -0.50518 v -2.85891 h 0.30198 q 0.10724,0 0.13264,0.10443 z m 6.46853,0.42333 q 0,0.45438 -0.14393,0.83538 -0.14394,0.37818 -0.4064,0.65193 -0.26247,0.27376 -0.63218,0.42616 -0.36689,0.14958 -0.8128,0.14958 -0.44591,0 -0.8128,-0.14958 -0.36689,-0.1524 -0.62935,-0.42616 -0.26247,-0.27375 -0.4064,-0.65193 -0.14394,-0.381 -0.14394,-0.83538 0,-0.45437 0.14394,-0.83255 0.14393,-0.381 0.4064,-0.65476 0.26246,-0.27657 0.62935,-0.42897 0.36689,-0.1524 0.8128,-0.1524 0.44591,0 0.8128,0.1524 0.36971,0.1524 0.63218,0.42897 0.26246,0.27376 0.4064,0.65476 0.14393,0.37818 0.14393,0.83255 z m -0.56162,0 q 0,-0.37253 -0.1016,-0.66886 -0.1016,-0.29634 -0.28787,-0.49954 -0.18627,-0.20602 -0.45155,-0.31608 -0.26529,-0.11007 -0.59267,-0.11007 -0.32456,0 -0.58984,0.11007 -0.26529,0.11006 -0.45438,0.31608 -0.18627,0.2032 -0.28787,0.49954 -0.1016,0.29633 -0.1016,0.66886 0,0.37254 0.1016,0.66887 0.1016,0.29351 0.28787,0.49953 0.18909,0.2032 0.45438,0.31327 0.26528,0.10724 0.58984,0.10724 0.32738,0 0.59267,-0.10724 0.26528,-0.11007 0.45155,-0.31327 0.18627,-0.20602 0.28787,-0.49953 0.1016,-0.29633 0.1016,-0.66887 z m 1.67358,1.33209 q 0.13829,0.18627 0.30197,0.26247 0.16369,0.0762 0.36689,0.0762 0.40076,0 0.61525,-0.28505 0.21449,-0.28504 0.21449,-0.8128 0,-0.2794 -0.0508,-0.47977 -0.048,-0.20038 -0.14111,-0.32738 -0.0931,-0.12982 -0.2286,-0.18909 -0.13547,-0.0593 -0.30763,-0.0593 -0.24553,0 -0.4318,0.11289 -0.18344,0.11289 -0.33866,0.31891 z m -0.0254,-1.7272 q 0.18062,-0.22295 0.41769,-0.35842 0.23706,-0.13547 0.54186,-0.13547 0.24836,0 0.44874,0.096 0.20037,0.0931 0.34148,0.2794 0.14111,0.18344 0.21731,0.4572 0.0762,0.27375 0.0762,0.62935 0,0.31609 -0.0847,0.58985 -0.0847,0.27093 -0.24554,0.47131 -0.15804,0.19755 -0.38946,0.31327 -0.2286,0.11288 -0.51647,0.11288 -0.26246,0 -0.45155,-0.0875 -0.18627,-0.0903 -0.3302,-0.24836 v 1.26435 h -0.50518 v -3.82693 h 0.30198 q 0.10724,0 0.13264,0.10443 z"
       id="text3-1-1-5-7-6"
       style="font-size:5.64444px;line-height:1.25;font-family:Lato;-inkscape-font-specification:'Lato, Normal';text-align:center;letter-spacing:0px;word-spacing:0px;text-anchor:middle;fill:#fff3f0;stroke-width:0.264583"
       aria-label="GenOp" />
    <path
       d="m 103.4141,149.80809 q 0.03,0 0.051,0.021 l 0.11994,0.12894 q -0.13194,0.14093 -0.28787,0.25488 -0.15293,0.11095 -0.33884,0.19191 -0.18292,0.078 -0.40481,0.11995 -0.2189,0.045 -0.48278,0.045 -0.4408,0 -0.80963,-0.15293 -0.36583,-0.15593 -0.62971,-0.4378 -0.26387,-0.28487 -0.41081,-0.68668 -0.14393,-0.40182 -0.14393,-0.89359 0,-0.48278 0.14993,-0.88159 0.14993,-0.39882 0.41981,-0.68369 0.26987,-0.28786 0.6477,-0.44379 0.37782,-0.15893 0.83361,-0.15893 0.4348,0 0.77065,0.13494 0.33584,0.13494 0.61172,0.38082 l -0.093,0.13494 q -0.024,0.036 -0.075,0.036 -0.036,0 -0.11694,-0.066 -0.081,-0.066 -0.2249,-0.14393 -0.14393,-0.081 -0.35983,-0.14693 -0.2129,-0.066 -0.51277,-0.066 -0.38382,0 -0.70467,0.13194 -0.31785,0.13194 -0.54875,0.37782 -0.22789,0.24589 -0.35683,0.59973 -0.12894,0.35383 -0.12894,0.79463 0,0.44979 0.12894,0.80363 0.13194,0.35383 0.35983,0.59972 0.2279,0.24289 0.53675,0.37483 0.31186,0.12894 0.67169,0.12894 0.2279,0 0.40482,-0.03 0.17991,-0.03 0.32984,-0.09 0.14993,-0.06 0.27887,-0.14693 0.12895,-0.087 0.25489,-0.2039 0.015,-0.012 0.03,-0.018 0.015,-0.009 0.03,-0.009 z m 1.98208,-2.31793 q 0.32086,0 0.57274,0.11095 0.25488,0.10795 0.4288,0.30886 0.17392,0.2009 0.26388,0.48577 0.093,0.28187 0.093,0.63271 0,0.35084 -0.093,0.63271 -0.09,0.28187 -0.26388,0.48277 -0.17392,0.20091 -0.4288,0.30886 -0.25188,0.10795 -0.57274,0.10795 -0.32085,0 -0.57573,-0.10795 -0.25188,-0.10795 -0.4288,-0.30886 -0.17392,-0.2009 -0.26688,-0.48277 -0.09,-0.28187 -0.09,-0.63271 0,-0.35084 0.09,-0.63271 0.093,-0.28487 0.26688,-0.48577 0.17692,-0.20091 0.4288,-0.30886 0.25488,-0.11095 0.57573,-0.11095 z m 0,2.84568 q 0.26688,0 0.46479,-0.0899 0.20091,-0.093 0.33285,-0.26388 0.13493,-0.17092 0.2009,-0.41081 0.066,-0.24289 0.066,-0.54275 0,-0.29686 -0.066,-0.53975 -0.066,-0.24289 -0.2009,-0.41381 -0.13194,-0.17392 -0.33285,-0.26688 -0.19791,-0.093 -0.46479,-0.093 -0.26687,0 -0.46778,0.093 -0.19791,0.093 -0.33285,0.26688 -0.13193,0.17092 -0.2009,0.41381 -0.066,0.24289 -0.066,0.53975 0,0.29986 0.066,0.54275 0.069,0.23989 0.2009,0.41081 0.13494,0.17092 0.33285,0.26388 0.20091,0.0899 0.46778,0.0899 z m 2.43788,-2.07804 q 0.069,-0.18291 0.15593,-0.32385 0.09,-0.14393 0.20391,-0.24288 0.11694,-0.099 0.25788,-0.14993 0.14393,-0.054 0.31785,-0.054 0.093,0 0.18292,0.018 0.09,0.015 0.15892,0.057 l -0.024,0.1979 q -0.015,0.048 -0.057,0.048 -0.036,0 -0.11095,-0.021 -0.072,-0.021 -0.19191,-0.021 -0.17392,0 -0.30886,0.054 -0.13194,0.051 -0.23989,0.15592 -0.10495,0.10496 -0.18591,0.26088 -0.078,0.15293 -0.14394,0.35384 v 1.93111 h -0.28786 v -2.98362 h 0.15293 q 0.051,0 0.072,0.021 0.021,0.021 0.027,0.072 z m 3.77226,0.47079 q 0,-0.23989 -0.069,-0.4288 -0.066,-0.19192 -0.18891,-0.32386 -0.12294,-0.13193 -0.29386,-0.2009 -0.16793,-0.072 -0.37183,-0.072 -0.23089,0 -0.41381,0.072 -0.18292,0.072 -0.31785,0.2069 -0.13194,0.13494 -0.2129,0.32385 -0.081,0.18892 -0.10795,0.42281 z m -1.99108,0.18291 v 0.057 q 0,0.33584 0.078,0.59072 0.078,0.25489 0.22189,0.42881 0.14394,0.17092 0.34784,0.25788 0.20391,0.087 0.45579,0.087 0.2249,0 0.38982,-0.048 0.16493,-0.051 0.27587,-0.11095 0.11395,-0.063 0.17992,-0.11095 0.066,-0.051 0.096,-0.051 0.039,0 0.06,0.03 l 0.078,0.096 q -0.072,0.09 -0.19191,0.16792 -0.11694,0.078 -0.26388,0.13494 -0.14393,0.054 -0.31185,0.087 -0.16493,0.033 -0.33285,0.033 -0.30586,0 -0.55774,-0.10495 -0.25188,-0.10795 -0.4318,-0.31186 -0.17992,-0.2039 -0.27887,-0.49777 -0.096,-0.29686 -0.096,-0.67768 0,-0.32086 0.09,-0.59073 0.093,-0.27287 0.26388,-0.46778 0.17392,-0.19791 0.4228,-0.30886 0.25189,-0.11095 0.56974,-0.11095 0.25188,0 0.46778,0.087 0.2159,0.087 0.37483,0.25488 0.15893,0.16493 0.24889,0.40781 0.093,0.24289 0.093,0.55775 0,0.066 -0.018,0.0899 -0.018,0.024 -0.06,0.024 z m 7.10672,1.34938 v 0.26088 h -2.31793 v -4.24304 h 0.30885 v 3.98216 z m 0.89958,-2.72274 v 2.98362 h -0.28487 v -2.98362 z m 0.12295,-1.02853 q 0,0.054 -0.024,0.10196 -0.021,0.045 -0.057,0.081 -0.036,0.036 -0.084,0.057 -0.048,0.021 -0.10195,0.021 -0.054,0 -0.10195,-0.021 -0.048,-0.021 -0.084,-0.057 -0.036,-0.036 -0.057,-0.081 -0.021,-0.048 -0.021,-0.10196 0,-0.054 0.021,-0.10195 0.021,-0.051 0.057,-0.087 0.036,-0.036 0.084,-0.057 0.048,-0.021 0.10195,-0.021 0.054,0 0.10195,0.021 0.048,0.021 0.084,0.057 0.036,0.036 0.057,0.087 0.024,0.048 0.024,0.10195 z m 1.18145,3.36145 q 0.17392,0.25788 0.38082,0.36283 0.20991,0.10195 0.47079,0.10195 0.26687,0 0.46478,-0.0959 0.20091,-0.096 0.33285,-0.27287 0.13493,-0.17992 0.2009,-0.4348 0.066,-0.25489 0.066,-0.57274 0,-0.61771 -0.24588,-0.92957 -0.24589,-0.31186 -0.68968,-0.31186 -0.31786,0 -0.55475,0.15293 -0.23689,0.15293 -0.4258,0.42581 z m 0,-1.81416 q 0.19491,-0.26388 0.45579,-0.41381 0.26088,-0.15293 0.60572,-0.15293 0.26987,0 0.48278,0.099 0.2129,0.099 0.35983,0.28487 0.14993,0.18592 0.22789,0.45879 0.078,0.26988 0.078,0.61472 0,0.36283 -0.087,0.66269 -0.087,0.29686 -0.25488,0.50976 -0.16493,0.20991 -0.40482,0.32685 -0.23989,0.11395 -0.54874,0.11395 -0.31786,0 -0.54275,-0.11994 -0.2219,-0.12295 -0.38383,-0.36284 l -0.021,0.36883 q -0.009,0.075 -0.081,0.075 h -0.17392 v -4.36299 h 0.28787 z m 3.28948,0.2009 q 0.069,-0.18291 0.15593,-0.32385 0.09,-0.14393 0.20391,-0.24288 0.11694,-0.099 0.25788,-0.14993 0.14393,-0.054 0.31785,-0.054 0.093,0 0.18292,0.018 0.09,0.015 0.15892,0.057 l -0.024,0.1979 q -0.015,0.048 -0.057,0.048 -0.036,0 -0.11095,-0.021 -0.072,-0.021 -0.19191,-0.021 -0.17392,0 -0.30886,0.054 -0.13194,0.051 -0.23989,0.15592 -0.10495,0.10496 -0.18591,0.26088 -0.078,0.15293 -0.14393,0.35384 v 1.93111 h -0.28787 v -2.98362 h 0.15293 q 0.051,0 0.072,0.021 0.021,0.021 0.027,0.072 z m 3.45441,0.82163 q -0.4258,0.015 -0.73466,0.069 -0.30586,0.051 -0.50677,0.14094 -0.1979,0.09 -0.29386,0.2159 -0.096,0.12294 -0.096,0.28187 0,0.14993 0.048,0.26088 0.051,0.10795 0.13194,0.17991 0.084,0.069 0.19191,0.10196 0.10795,0.033 0.2249,0.033 0.17392,0 0.31785,-0.036 0.14693,-0.039 0.26988,-0.10495 0.12594,-0.069 0.23389,-0.16193 0.10795,-0.093 0.2129,-0.2009 z m -1.75419,-1.11849 q 0.23389,-0.23389 0.49177,-0.35383 0.25788,-0.11995 0.58473,-0.11995 0.23989,0 0.41981,0.078 0.17992,0.075 0.29686,0.2189 0.11995,0.14094 0.17992,0.34484 0.06,0.20091 0.06,0.4498 v 1.9431 h -0.11395 q -0.09,0 -0.11094,-0.084 l -0.042,-0.38382 q -0.12295,0.11994 -0.24589,0.2159 -0.11995,0.0959 -0.25189,0.16192 -0.13193,0.066 -0.28486,0.10195 -0.15293,0.036 -0.33585,0.036 -0.15293,0 -0.29686,-0.045 -0.14393,-0.045 -0.25788,-0.13794 -0.11095,-0.093 -0.17992,-0.23689 -0.066,-0.14693 -0.066,-0.35084 0,-0.18891 0.10795,-0.35084 0.10795,-0.16192 0.33885,-0.28186 0.23089,-0.11995 0.59072,-0.19192 0.36283,-0.072 0.8696,-0.084 v -0.31185 q 0,-0.41381 -0.17992,-0.63571 -0.17691,-0.2249 -0.52775,-0.2249 -0.2159,0 -0.36883,0.06 -0.14993,0.06 -0.25488,0.13194 -0.10496,0.072 -0.17093,0.13193 -0.066,0.06 -0.11094,0.06 -0.033,0 -0.054,-0.015 -0.021,-0.015 -0.036,-0.039 z m 3.25949,0.29686 q 0.069,-0.18291 0.15593,-0.32385 0.09,-0.14393 0.2039,-0.24288 0.11695,-0.099 0.25789,-0.14993 0.14393,-0.054 0.31785,-0.054 0.093,0 0.18291,0.018 0.09,0.015 0.15893,0.057 l -0.024,0.1979 q -0.015,0.048 -0.057,0.048 -0.036,0 -0.11095,-0.021 -0.072,-0.021 -0.19191,-0.021 -0.17392,0 -0.30886,0.054 -0.13194,0.051 -0.23989,0.15592 -0.10495,0.10496 -0.18591,0.26088 -0.078,0.15293 -0.14394,0.35384 v 1.93111 h -0.28786 v -2.98362 h 0.15293 q 0.051,0 0.072,0.021 0.021,0.021 0.027,0.072 z m 4.25804,-0.71966 -1.71521,3.94318 q -0.018,0.042 -0.048,0.069 -0.027,0.027 -0.081,0.027 h -0.20391 l 0.52476,-1.16646 -1.26242,-2.87267 h 0.23689 q 0.045,0 0.072,0.024 0.027,0.021 0.036,0.048 l 1.00454,2.32093 q 0.018,0.045 0.03,0.093 0.015,0.045 0.027,0.093 0.015,-0.048 0.03,-0.093 0.018,-0.048 0.036,-0.093 l 0.99255,-2.32093 q 0.015,-0.033 0.042,-0.051 0.027,-0.021 0.06,-0.021 z"
       id="text3-4-7-2"
       style="font-weight:300;font-size:5.99723px;line-height:1.25;font-family:Lato;-inkscape-font-specification:'Lato, Light';text-align:center;letter-spacing:0px;word-spacing:0px;text-anchor:middle;fill:#fff3f0;stroke-width:0.264583"
       aria-label="Core Library" />
    <g
       id="text3-2-72-4"
       style="font-size:5.64444px;line-height:1.25;font-family:Lato;-inkscape-font-specification:'Lato, Normal';text-align:center;letter-spacing:0px;word-spacing:0px;white-space:pre-wrap;fill:#fff3f0;stroke-width:0.264583"
       transform="translate(0.09789,2.61852)"
       aria-label="Torch&#10;CPU | GPU">
      <path
         d="m 67.874446,168.62605 h -1.30951 v 3.58422 h -0.544689 v -3.58422 h -1.312332 v -0.46002 h 3.166531 z m 0.996244,0.68015 q 0.313267,0 0.564444,0.10442 0.251178,0.10443 0.428978,0.29634 0.1778,0.19191 0.270933,0.46566 0.09595,0.27094 0.09595,0.60678 0,0.33867 -0.09595,0.6096 -0.09313,0.27093 -0.270933,0.46284 -0.1778,0.19192 -0.428978,0.29634 -0.251177,0.1016 -0.564444,0.1016 -0.316088,0 -0.570088,-0.1016 -0.251178,-0.10442 -0.428978,-0.29634 -0.1778,-0.19191 -0.273755,-0.46284 -0.09313,-0.27093 -0.09313,-0.6096 0,-0.33584 0.09313,-0.60678 0.09596,-0.27375 0.273755,-0.46566 0.1778,-0.19191 0.428978,-0.29634 0.254,-0.10442 0.570088,-0.10442 z m 0,2.55129 q 0.423333,0 0.632178,-0.28222 0.208844,-0.28505 0.208844,-0.79305 0,-0.51082 -0.208844,-0.79586 -0.208845,-0.28505 -0.632178,-0.28505 -0.214488,0 -0.375355,0.0734 -0.158044,0.0734 -0.265289,0.21167 -0.104422,0.13829 -0.158044,0.34149 -0.0508,0.20037 -0.0508,0.45437 0,0.508 0.208844,0.79305 0.211667,0.28222 0.640644,0.28222 z m 2.472262,-1.93322 q 0.135466,-0.29351 0.333022,-0.4572 0.197555,-0.16651 0.482599,-0.16651 0.09031,0 0.172156,0.0198 0.08467,0.0198 0.149577,0.0621 l -0.03669,0.37536 q -0.01693,0.0705 -0.08467,0.0705 -0.03951,0 -0.115711,-0.0169 -0.0762,-0.0169 -0.172156,-0.0169 -0.135466,0 -0.242711,0.0395 -0.104422,0.0395 -0.189088,0.11853 -0.08185,0.0762 -0.149578,0.19191 -0.06491,0.11289 -0.118533,0.25965 v 1.80622 h -0.505178 v -2.85891 h 0.287867 q 0.08184,0 0.112889,0.031 0.03104,0.0311 0.04233,0.10725 z m 3.451576,-0.0649 q -0.02258,0.031 -0.04516,0.048 -0.02258,0.0169 -0.06209,0.0169 -0.04233,0 -0.09313,-0.0339 -0.0508,-0.0367 -0.127,-0.079 -0.07338,-0.0423 -0.183444,-0.0762 -0.107244,-0.0367 -0.265289,-0.0367 -0.211666,0 -0.372533,0.0762 -0.160866,0.0734 -0.270933,0.21449 -0.107244,0.14111 -0.163689,0.34149 -0.05362,0.20038 -0.05362,0.44873 0,0.25965 0.05927,0.46285 0.05927,0.20037 0.166511,0.33866 0.110066,0.13547 0.262466,0.20885 0.155222,0.0705 0.347133,0.0705 0.183445,0 0.301978,-0.0423 0.118533,-0.0452 0.194733,-0.0988 0.07902,-0.0536 0.129822,-0.0959 0.05362,-0.0452 0.104422,-0.0452 0.06209,0 0.09596,0.048 l 0.141111,0.18344 q -0.09313,0.11571 -0.211667,0.19756 -0.118533,0.0818 -0.256822,0.13829 -0.135466,0.0536 -0.285044,0.079 -0.149578,0.0254 -0.3048,0.0254 -0.268111,0 -0.499533,-0.0988 -0.2286,-0.0988 -0.397933,-0.28504 -0.169333,-0.18909 -0.265288,-0.46285 -0.09596,-0.27375 -0.09596,-0.62371 0,-0.31891 0.08749,-0.58984 0.09031,-0.27094 0.259644,-0.46567 0.172156,-0.19755 0.420511,-0.30762 0.251177,-0.11007 0.575733,-0.11007 0.301977,0 0.530577,0.0988 0.231422,0.096 0.409222,0.27376 z m 1.210737,-0.127 q 0.183445,-0.19474 0.4064,-0.31045 0.222955,-0.11571 0.513644,-0.11571 0.234244,0 0.412044,0.079 0.180622,0.0762 0.299155,0.22014 0.121356,0.14111 0.183445,0.34149 0.06209,0.20037 0.06209,0.44308 v 1.82034 h -0.505178 v -1.82034 q 0,-0.32455 -0.149577,-0.50235 -0.146756,-0.18062 -0.448733,-0.18062 -0.222956,0 -0.417689,0.10724 -0.191911,0.10725 -0.3556,0.29069 v 2.10538 h -0.505177 v -4.15713 h 0.505177 z"
         id="path5" />
      <path
         style="font-weight:300;font-size:5.29167px;-inkscape-font-specification:'Lato, Light'"
         d="m 61.98526,178.63612 q 0.02646,0 0.04498,0.0185 l 0.105833,0.11377 q -0.116417,0.12435 -0.254,0.22489 -0.134938,0.0979 -0.29898,0.16934 -0.161395,0.0688 -0.357187,0.10583 -0.193146,0.0397 -0.42598,0.0397 -0.388937,0 -0.714375,-0.13494 -0.322792,-0.13758 -0.555625,-0.38629 -0.232834,-0.25136 -0.36248,-0.6059 -0.127,-0.35454 -0.127,-0.78846 0,-0.42598 0.132292,-0.77787 0.132292,-0.3519 0.370417,-0.60325 0.238125,-0.254 0.5715,-0.39159 0.333375,-0.14023 0.735542,-0.14023 0.383646,0 0.67998,0.11907 0.296333,0.11906 0.53975,0.33602 l -0.08202,0.11906 q -0.02117,0.0318 -0.06615,0.0318 -0.03175,0 -0.103187,-0.0582 -0.07144,-0.0582 -0.198438,-0.127 -0.127,-0.0714 -0.3175,-0.12964 -0.187854,-0.0582 -0.452438,-0.0582 -0.338667,0 -0.621771,0.11641 -0.280459,0.11642 -0.484188,0.33338 -0.201083,0.21696 -0.314854,0.52917 -0.113771,0.31221 -0.113771,0.70114 0,0.39688 0.113771,0.70909 0.116417,0.31221 0.3175,0.52916 0.201083,0.21432 0.473604,0.33073 0.275167,0.11377 0.592668,0.11377 0.201083,0 0.357187,-0.0265 0.15875,-0.0265 0.291042,-0.0794 0.132292,-0.0529 0.246063,-0.12965 0.113771,-0.0767 0.224896,-0.17991 0.01323,-0.0106 0.02646,-0.0159 0.01323,-0.008 0.02646,-0.008 z m 1.844151,-1.09538 q 0.246062,0 0.441854,-0.0688 0.195792,-0.0688 0.330729,-0.1905 0.137584,-0.12171 0.209021,-0.28575 0.07408,-0.16669 0.07408,-0.36248 0,-0.43127 -0.264584,-0.66411 -0.264583,-0.23283 -0.791104,-0.23283 h -0.695855 v 1.80446 z m 0,-2.01877 q 0.658812,0 0.992188,0.28839 0.336021,0.2884 0.336021,0.82286 0,0.24606 -0.0926,0.45244 -0.0926,0.20637 -0.264583,0.35718 -0.171979,0.14817 -0.418042,0.23284 -0.246063,0.082 -0.552979,0.082 h -0.695855 v 1.50812 h -0.272521 v -3.74385 z m 3.460747,3.55071 q 0.269875,0 0.481542,-0.0926 0.214313,-0.0953 0.362479,-0.26193 0.148167,-0.16669 0.224896,-0.39159 0.07937,-0.22754 0.07937,-0.48948 v -2.3151 h 0.269876 v 2.3151 q 0,0.30957 -0.0979,0.57944 -0.0979,0.26723 -0.283105,0.46831 -0.182562,0.19844 -0.447146,0.31221 -0.261937,0.11377 -0.590021,0.11377 -0.328083,0 -0.592667,-0.11377 -0.261938,-0.11377 -0.447146,-0.31221 -0.182563,-0.20108 -0.280459,-0.46831 -0.0979,-0.26987 -0.0979,-0.57944 v -2.3151 h 0.272521 v 2.31246 q 0,0.26194 0.07673,0.48948 0.07937,0.22489 0.224896,0.39158 0.148167,0.16669 0.359833,0.26194 0.214313,0.0952 0.484188,0.0952 z m 3.892018,-3.82059 h 0.198437 v 4.95301 h -0.198437 z m 5.709712,2.31511 v 1.33085 q -0.280458,0.19844 -0.597959,0.30427 -0.3175,0.10584 -0.714375,0.10584 -0.4445,0 -0.799042,-0.13494 -0.354542,-0.13758 -0.605896,-0.38629 -0.248709,-0.25136 -0.383646,-0.6059 -0.132292,-0.35454 -0.132292,-0.78846 0,-0.43391 0.129646,-0.78581 0.132292,-0.35454 0.375708,-0.60325 0.246063,-0.25135 0.592667,-0.38629 0.346605,-0.13759 0.780522,-0.13759 0.214312,0 0.394229,0.0291 0.182563,0.0291 0.338667,0.0873 0.156104,0.0556 0.291042,0.14023 0.134937,0.082 0.259292,0.1905 l -0.07408,0.11642 q -0.03704,0.0635 -0.111125,0.0291 -0.03969,-0.0159 -0.113771,-0.0741 -0.07408,-0.0582 -0.203729,-0.12171 -0.129646,-0.0635 -0.322792,-0.11377 -0.1905,-0.0503 -0.465667,-0.0503 -0.365125,0 -0.661459,0.11641 -0.293687,0.11642 -0.502708,0.33338 -0.206375,0.21696 -0.320146,0.52917 -0.111125,0.31221 -0.111125,0.70114 0,0.39423 0.111125,0.70909 0.113771,0.31485 0.325437,0.53446 0.214313,0.2196 0.518584,0.33602 0.304271,0.11641 0.685271,0.11641 0.166688,0 0.306917,-0.0212 0.142875,-0.0212 0.269875,-0.0582 0.129646,-0.0397 0.248709,-0.0952 0.121708,-0.0582 0.246063,-0.12965 v -1.00806 h -0.717022 q -0.0291,0 -0.05027,-0.0185 -0.01852,-0.0185 -0.01852,-0.0423 v -0.14816 z m 1.867963,-0.0265 q 0.246062,0 0.441854,-0.0688 0.195792,-0.0688 0.33073,-0.1905 0.137583,-0.12171 0.209021,-0.28575 0.07408,-0.16669 0.07408,-0.36248 0,-0.43127 -0.264584,-0.66411 -0.264583,-0.23283 -0.791104,-0.23283 h -0.695855 v 1.80446 z m 0,-2.01877 q 0.658813,0 0.992188,0.28839 0.336021,0.2884 0.336021,0.82286 0,0.24606 -0.0926,0.45244 -0.09261,0.20637 -0.264584,0.35718 -0.171979,0.14817 -0.418042,0.23284 -0.246062,0.082 -0.552979,0.082 h -0.695855 v 1.50812 h -0.272521 v -3.74385 z m 3.460747,3.55071 q 0.269875,0 0.481542,-0.0926 0.214313,-0.0953 0.362479,-0.26193 0.148167,-0.16669 0.224896,-0.39159 0.07937,-0.22754 0.07937,-0.48948 v -2.3151 h 0.269876 v 2.3151 q 0,0.30957 -0.0979,0.57944 -0.0979,0.26723 -0.283105,0.46831 -0.182562,0.19844 -0.447146,0.31221 -0.261937,0.11377 -0.590021,0.11377 -0.328083,0 -0.592667,-0.11377 -0.261938,-0.11377 -0.447146,-0.31221 -0.182563,-0.20108 -0.280459,-0.46831 -0.0979,-0.26987 -0.0979,-0.57944 v -2.3151 h 0.272521 v 2.31246 q 0,0.26194 0.07673,0.48948 0.07937,0.22489 0.224896,0.39158 0.148166,0.16669 0.359833,0.26194 0.214313,0.0952 0.484188,0.0952 z"
         id="path7" />
    </g>
    <rect
       id="rect1513-2-5-2-4"
       data-name="rect151"
       class="st0"
       x="105.96838"
       y="166.96162"
       width="30.157106"
       height="19.573416"
       style="display:inline;fill:none;fill-opacity:1;stroke:#fff3f0;stroke-width:0.270053;stroke-dasharray:0.540105, 0.270053;stroke-dashoffset:0;stroke-opacity:1"
       ry="2.1685746" />
    <g
       id="text3-2-7-6-8"
       style="font-size:5.64444px;line-height:1.25;font-family:Lato;-inkscape-font-specification:'Lato, Normal';text-align:center;letter-spacing:0px;word-spacing:0px;text-anchor:middle;fill:#fff3f0;stroke-width:0.264583"
       aria-label="JetsonInference">
      <path
         d="m 114.77738,174.32592 q 0,0.33866 -0.0847,0.60677 -0.0818,0.26811 -0.24554,0.45438 -0.16086,0.18345 -0.39793,0.28222 -0.23707,0.0988 -0.54469,0.0988 -0.2794,0 -0.57009,-0.079 0.006,-0.0819 0.0141,-0.16087 0.008,-0.0818 0.0141,-0.16086 0.006,-0.048 0.0339,-0.0762 0.031,-0.031 0.0931,-0.031 0.0508,0 0.13265,0.0254 0.0847,0.0254 0.22578,0.0254 0.18626,0 0.33302,-0.0564 0.14675,-0.0565 0.24553,-0.17498 0.0988,-0.11853 0.14958,-0.30198 0.0536,-0.18626 0.0536,-0.44026 v -2.65854 h 0.54751 z m 2.68394,-0.34431 q 0,-0.17498 -0.0508,-0.31892 -0.048,-0.14675 -0.14393,-0.25117 -0.0931,-0.10725 -0.2286,-0.16369 -0.13547,-0.0593 -0.30763,-0.0593 -0.36124,0 -0.57291,0.21167 -0.20884,0.20884 -0.25964,0.58138 z m 0.4064,1.34055 q -0.0931,0.11289 -0.22296,0.19756 -0.12982,0.0818 -0.2794,0.13546 -0.14675,0.0536 -0.3048,0.079 -0.15804,0.0282 -0.31326,0.0282 -0.29634,0 -0.54751,-0.0988 -0.24836,-0.1016 -0.4318,-0.29351 -0.18063,-0.19474 -0.28222,-0.47978 -0.1016,-0.28504 -0.1016,-0.65475 0,-0.29916 0.0903,-0.5588 0.0931,-0.25965 0.26528,-0.44874 0.17216,-0.19191 0.42052,-0.29915 0.24835,-0.11007 0.5588,-0.11007 0.25682,0 0.47413,0.0875 0.22013,0.0847 0.37818,0.24836 0.16086,0.16086 0.25117,0.40075 0.0903,0.23707 0.0903,0.54187 0,0.11853 -0.0254,0.15804 -0.0254,0.0395 -0.0959,0.0395 h -1.91064 q 0.008,0.27094 0.0734,0.47131 0.0677,0.20038 0.18627,0.33585 0.11853,0.13264 0.28222,0.20037 0.16369,0.0649 0.36689,0.0649 0.18909,0 0.32456,-0.0423 0.13828,-0.0452 0.23706,-0.096 0.0988,-0.0508 0.16369,-0.0931 0.0677,-0.0451 0.11571,-0.0451 0.0621,0 0.096,0.048 z m 1.51835,0.44591 q -0.33866,0 -0.52211,-0.18909 -0.18062,-0.18909 -0.18062,-0.54469 v -1.74977 h -0.34431 q -0.0452,0 -0.0762,-0.0254 -0.031,-0.0282 -0.031,-0.0847 v -0.20038 l 0.46849,-0.0593 0.11571,-0.88336 q 0.008,-0.0423 0.0367,-0.0677 0.031,-0.0282 0.079,-0.0282 h 0.25399 v 0.98495 h 0.82692 v 0.36407 h -0.82692 v 1.71591 q 0,0.18062 0.0875,0.26811 0.0875,0.0875 0.22578,0.0875 0.079,0 0.13547,-0.0198 0.0593,-0.0226 0.1016,-0.048 0.0423,-0.0254 0.0705,-0.0451 0.0311,-0.0226 0.0536,-0.0226 0.0395,0 0.0706,0.048 l 0.14676,0.23989 q -0.12983,0.12135 -0.31327,0.19191 -0.18344,0.0677 -0.37818,0.0677 z m 2.81093,-2.43275 q -0.0339,0.0621 -0.10442,0.0621 -0.0423,0 -0.096,-0.0311 -0.0536,-0.031 -0.13264,-0.0677 -0.0762,-0.0395 -0.18345,-0.0706 -0.10724,-0.0339 -0.254,-0.0339 -0.127,0 -0.22859,0.0339 -0.1016,0.031 -0.17498,0.0875 -0.0706,0.0564 -0.11007,0.13265 -0.0367,0.0734 -0.0367,0.16086 0,0.11007 0.0621,0.18345 0.0649,0.0734 0.16933,0.127 0.10443,0.0536 0.23707,0.0959 0.13264,0.0395 0.27093,0.0875 0.14111,0.0452 0.27376,0.1016 0.13264,0.0565 0.23707,0.14111 0.10442,0.0847 0.16651,0.20885 0.0649,0.12135 0.0649,0.29351 0,0.19755 -0.0706,0.36689 -0.0706,0.16651 -0.20884,0.29068 -0.13829,0.12136 -0.33867,0.19192 -0.20038,0.0705 -0.46284,0.0705 -0.29916,0 -0.54187,-0.0959 -0.24271,-0.0988 -0.41204,-0.25118 l 0.11853,-0.19191 q 0.0226,-0.0367 0.0536,-0.0564 0.0311,-0.0198 0.079,-0.0198 0.0508,0 0.10725,0.0395 0.0564,0.0395 0.13547,0.0875 0.0818,0.048 0.19755,0.0875 0.11571,0.0395 0.28787,0.0395 0.14675,0 0.25682,-0.0367 0.11007,-0.0395 0.18344,-0.10442 0.0734,-0.0649 0.10725,-0.14958 0.0367,-0.0847 0.0367,-0.18062 0,-0.11854 -0.0649,-0.19474 -0.0621,-0.079 -0.16652,-0.13264 -0.10442,-0.0564 -0.23988,-0.096 -0.13265,-0.0423 -0.27376,-0.0875 -0.13829,-0.0452 -0.27375,-0.1016 -0.13265,-0.0593 -0.23707,-0.14675 -0.10442,-0.0875 -0.16933,-0.21449 -0.0621,-0.12982 -0.0621,-0.31327 0,-0.16368 0.0677,-0.31326 0.0677,-0.1524 0.19756,-0.26529 0.12982,-0.11571 0.31891,-0.18345 0.18909,-0.0677 0.4318,-0.0677 0.28222,0 0.50517,0.0903 0.22578,0.0875 0.38947,0.24271 z m 1.98403,-0.51647 q 0.31326,0 0.56444,0.10442 0.25118,0.10443 0.42898,0.29634 0.1778,0.19191 0.27093,0.46566 0.096,0.27094 0.096,0.60678 0,0.33867 -0.096,0.6096 -0.0931,0.27093 -0.27093,0.46284 -0.1778,0.19191 -0.42898,0.29634 -0.25118,0.1016 -0.56444,0.1016 -0.31609,0 -0.57009,-0.1016 -0.25118,-0.10443 -0.42898,-0.29634 -0.1778,-0.19191 -0.27376,-0.46284 -0.0931,-0.27093 -0.0931,-0.6096 0,-0.33584 0.0931,-0.60678 0.096,-0.27375 0.27376,-0.46566 0.1778,-0.19191 0.42898,-0.29634 0.254,-0.10442 0.57009,-0.10442 z m 0,2.55129 q 0.42333,0 0.63217,-0.28222 0.20885,-0.28505 0.20885,-0.79305 0,-0.51082 -0.20885,-0.79586 -0.20884,-0.28505 -0.63217,-0.28505 -0.21449,0 -0.37536,0.0734 -0.15804,0.0734 -0.26529,0.21167 -0.10442,0.13829 -0.15804,0.34148 -0.0508,0.20038 -0.0508,0.45438 0,0.508 0.20884,0.79305 0.21167,0.28222 0.64065,0.28222 z m 2.46943,-2.09127 q 0.0931,-0.10442 0.19756,-0.18909 0.10442,-0.0847 0.22013,-0.14393 0.11854,-0.0621 0.24836,-0.0931 0.13264,-0.0339 0.28504,-0.0339 0.23425,0 0.41205,0.079 0.18062,0.0762 0.29915,0.22014 0.12136,0.14111 0.18345,0.34149 0.0621,0.20037 0.0621,0.44308 v 1.82034 h -0.50518 v -1.82034 q 0,-0.32455 -0.14958,-0.50235 -0.14676,-0.18062 -0.44873,-0.18062 -0.22296,0 -0.41769,0.10724 -0.19191,0.10725 -0.3556,0.29069 v 2.10538 h -0.50518 v -2.85891 h 0.30198 q 0.10724,0 0.13264,0.10442 z"
         id="path8" />
      <path
         d="m 110.3606,181.77847 h -0.54751 v -4.04424 h 0.54751 z m 1.34621,-2.44404 q 0.0931,-0.10442 0.19755,-0.18909 0.10443,-0.0847 0.22014,-0.14393 0.11853,-0.0621 0.24835,-0.0931 0.13265,-0.0339 0.28505,-0.0339 0.23424,0 0.41204,0.079 0.18062,0.0762 0.29916,0.22013 0.12135,0.14111 0.18344,0.34149 0.0621,0.20038 0.0621,0.44309 v 1.82033 h -0.50518 v -1.82033 q 0,-0.32455 -0.14958,-0.50235 -0.14675,-0.18063 -0.44873,-0.18063 -0.22295,0 -0.41769,0.10725 -0.19191,0.10724 -0.3556,0.29069 v 2.10537 h -0.50517 v -2.85891 h 0.30197 q 0.10725,0 0.13265,0.10443 z m 2.81658,2.44404 v -2.42993 l -0.31609,-0.0367 q -0.0593,-0.0141 -0.0988,-0.0423 -0.0367,-0.031 -0.0367,-0.0875 v -0.20602 h 0.45155 v -0.27658 q 0,-0.24553 0.0677,-0.43462 0.0706,-0.19191 0.19756,-0.32173 0.12982,-0.13265 0.31044,-0.20038 0.18063,-0.0677 0.4064,-0.0677 0.19191,0 0.35278,0.0565 l -0.0113,0.25118 q -0.006,0.0677 -0.0762,0.0734 -0.0677,0.006 -0.18344,0.006 -0.12982,0 -0.23707,0.0339 -0.10442,0.0339 -0.18062,0.11006 -0.0762,0.0762 -0.11853,0.20038 -0.0395,0.12418 -0.0395,0.30762 v 0.26247 h 0.82409 v 0.36406 h -0.80715 v 2.4384 z m 3.61244,-1.74131 q 0,-0.17497 -0.0508,-0.31891 -0.048,-0.14675 -0.14393,-0.25118 -0.0931,-0.10724 -0.2286,-0.16368 -0.13547,-0.0593 -0.30762,-0.0593 -0.36125,0 -0.57292,0.21167 -0.20884,0.20884 -0.25964,0.58137 z m 0.4064,1.34056 q -0.0931,0.11289 -0.22296,0.19755 -0.12982,0.0819 -0.27939,0.13547 -0.14676,0.0536 -0.3048,0.079 -0.15805,0.0282 -0.31327,0.0282 -0.29633,0 -0.54751,-0.0988 -0.24836,-0.1016 -0.4318,-0.29351 -0.18062,-0.19474 -0.28222,-0.47978 -0.1016,-0.28505 -0.1016,-0.65476 0,-0.29915 0.0903,-0.5588 0.0931,-0.25964 0.26529,-0.44873 0.17215,-0.19191 0.42051,-0.29915 0.24835,-0.11007 0.5588,-0.11007 0.25682,0 0.47413,0.0875 0.22013,0.0847 0.37818,0.24835 0.16086,0.16087 0.25117,0.40076 0.0903,0.23706 0.0903,0.54186 0,0.11854 -0.0254,0.15805 -0.0254,0.0395 -0.096,0.0395 h -1.91064 q 0.008,0.27093 0.0734,0.47131 0.0677,0.20038 0.18627,0.33584 0.11853,0.13265 0.28222,0.20038 0.16369,0.0649 0.36689,0.0649 0.18909,0 0.32456,-0.0423 0.13829,-0.0452 0.23706,-0.096 0.0988,-0.0508 0.16369,-0.0931 0.0677,-0.0452 0.11571,-0.0452 0.0621,0 0.096,0.048 z m 1.13735,-1.88525 q 0.13547,-0.29351 0.33303,-0.4572 0.19755,-0.16651 0.4826,-0.16651 0.0903,0 0.17215,0.0198 0.0847,0.0198 0.14958,0.0621 l -0.0367,0.37535 q -0.0169,0.0706 -0.0847,0.0706 -0.0395,0 -0.11571,-0.0169 -0.0762,-0.0169 -0.17215,-0.0169 -0.13547,0 -0.24271,0.0395 -0.10443,0.0395 -0.18909,0.11854 -0.0819,0.0762 -0.14958,0.19191 -0.0649,0.11289 -0.11853,0.25964 v 1.80622 h -0.50518 v -2.85891 h 0.28787 q 0.0818,0 0.11288,0.0311 0.031,0.031 0.0423,0.10724 z m 3.37538,0.54469 q 0,-0.17497 -0.0508,-0.31891 -0.048,-0.14675 -0.14393,-0.25118 -0.0931,-0.10724 -0.2286,-0.16368 -0.13547,-0.0593 -0.30762,-0.0593 -0.36125,0 -0.57292,0.21167 -0.20884,0.20884 -0.25964,0.58137 z m 0.4064,1.34056 q -0.0931,0.11289 -0.22296,0.19755 -0.12982,0.0819 -0.2794,0.13547 -0.14675,0.0536 -0.30479,0.079 -0.15805,0.0282 -0.31327,0.0282 -0.29633,0 -0.54751,-0.0988 -0.24836,-0.1016 -0.4318,-0.29351 -0.18062,-0.19474 -0.28222,-0.47978 -0.1016,-0.28505 -0.1016,-0.65476 0,-0.29915 0.0903,-0.5588 0.0931,-0.25964 0.26529,-0.44873 0.17215,-0.19191 0.42051,-0.29915 0.24835,-0.11007 0.5588,-0.11007 0.25682,0 0.47413,0.0875 0.22013,0.0847 0.37818,0.24835 0.16086,0.16087 0.25117,0.40076 0.0903,0.23706 0.0903,0.54186 0,0.11854 -0.0254,0.15805 -0.0254,0.0395 -0.096,0.0395 h -1.91064 q 0.008,0.27093 0.0734,0.47131 0.0677,0.20038 0.18627,0.33584 0.11853,0.13265 0.28222,0.20038 0.16369,0.0649 0.36689,0.0649 0.18909,0 0.32456,-0.0423 0.13829,-0.0452 0.23706,-0.096 0.0988,-0.0508 0.16369,-0.0931 0.0677,-0.0452 0.11571,-0.0452 0.0621,0 0.096,0.048 z m 1.13453,-2.04329 q 0.0931,-0.10442 0.19756,-0.18909 0.10442,-0.0847 0.22013,-0.14393 0.11853,-0.0621 0.24836,-0.0931 0.13264,-0.0339 0.28504,-0.0339 0.23424,0 0.41204,0.079 0.18063,0.0762 0.29916,0.22013 0.12135,0.14111 0.18344,0.34149 0.0621,0.20038 0.0621,0.44309 v 1.82033 h -0.50517 v -1.82033 q 0,-0.32455 -0.14958,-0.50235 -0.14676,-0.18063 -0.44874,-0.18063 -0.22295,0 -0.41768,0.10725 -0.19192,0.10724 -0.3556,0.29069 v 2.10537 h -0.50518 v -2.85891 h 0.30198 q 0.10724,0 0.13264,0.10443 z m 4.66513,0.0931 q -0.0226,0.031 -0.0452,0.048 -0.0226,0.0169 -0.0621,0.0169 -0.0423,0 -0.0931,-0.0339 -0.0508,-0.0367 -0.127,-0.079 -0.0734,-0.0423 -0.18345,-0.0762 -0.10724,-0.0367 -0.26529,-0.0367 -0.21166,0 -0.37253,0.0762 -0.16087,0.0734 -0.27093,0.21449 -0.10725,0.14111 -0.16369,0.34148 -0.0536,0.20038 -0.0536,0.44874 0,0.25964 0.0593,0.46284 0.0593,0.20038 0.16651,0.33867 0.11007,0.13546 0.26247,0.20884 0.15522,0.0706 0.34713,0.0706 0.18345,0 0.30198,-0.0423 0.11854,-0.0452 0.19474,-0.0988 0.079,-0.0536 0.12982,-0.096 0.0536,-0.0452 0.10442,-0.0452 0.0621,0 0.0959,0.048 l 0.14112,0.18345 q -0.0931,0.11571 -0.21167,0.19755 -0.11853,0.0819 -0.25682,0.13829 -0.13547,0.0536 -0.28505,0.079 -0.14957,0.0254 -0.3048,0.0254 -0.26811,0 -0.49953,-0.0988 -0.2286,-0.0988 -0.39793,-0.28505 -0.16934,-0.18909 -0.26529,-0.46284 -0.096,-0.27376 -0.096,-0.62371 0,-0.31891 0.0875,-0.58985 0.0903,-0.27093 0.25965,-0.46566 0.17215,-0.19756 0.42051,-0.30762 0.25117,-0.11007 0.57573,-0.11007 0.30198,0 0.53058,0.0988 0.23142,0.096 0.40922,0.27375 z m 2.56823,0.6096 q 0,-0.17497 -0.0508,-0.31891 -0.048,-0.14675 -0.14394,-0.25118 -0.0931,-0.10724 -0.2286,-0.16368 -0.13546,-0.0593 -0.30762,-0.0593 -0.36124,0 -0.57291,0.21167 -0.20884,0.20884 -0.25964,0.58137 z m 0.4064,1.34056 q -0.0931,0.11289 -0.22296,0.19755 -0.12982,0.0819 -0.2794,0.13547 -0.14676,0.0536 -0.3048,0.079 -0.15804,0.0282 -0.31327,0.0282 -0.29633,0 -0.54751,-0.0988 -0.24835,-0.1016 -0.4318,-0.29351 -0.18062,-0.19474 -0.28222,-0.47978 -0.1016,-0.28505 -0.1016,-0.65476 0,-0.29915 0.0903,-0.5588 0.0931,-0.25964 0.26529,-0.44873 0.17216,-0.19191 0.42051,-0.29915 0.24836,-0.11007 0.5588,-0.11007 0.25682,0 0.47413,0.0875 0.22014,0.0847 0.37818,0.24835 0.16087,0.16087 0.25118,0.40076 0.0903,0.23706 0.0903,0.54186 0,0.11854 -0.0254,0.15805 -0.0254,0.0395 -0.096,0.0395 h -1.91065 q 0.008,0.27093 0.0734,0.47131 0.0677,0.20038 0.18627,0.33584 0.11853,0.13265 0.28222,0.20038 0.16369,0.0649 0.36689,0.0649 0.18909,0 0.32455,-0.0423 0.13829,-0.0452 0.23707,-0.096 0.0988,-0.0508 0.16369,-0.0931 0.0677,-0.0452 0.11571,-0.0452 0.0621,0 0.0959,0.048 z"
         id="path9" />
    </g>
    <rect
       id="rect1513-2-5-5-6-8"
       data-name="rect151"
       class="st0"
       x="139.05574"
       y="166.83711"
       width="36.742779"
       height="19.665133"
       style="display:inline;fill:none;fill-opacity:1;stroke:#fff3f0;stroke-width:0.298783;stroke-dasharray:0.597564, 0.298783;stroke-dashoffset:0;stroke-opacity:1"
       ry="2.1787357" />
    <g
       id="text3-2-7-9-1-9"
       style="font-size:5.64444px;line-height:1.25;font-family:Lato;-inkscape-font-specification:'Lato, Normal';text-align:center;letter-spacing:0px;word-spacing:0px;text-anchor:middle;fill:#fff3f0;stroke-width:0.264583"
       aria-label="VirtIO | RPCTransport">
      <path
         d="m 146.10578,170.79513 -1.64817,4.04424 h -0.49107 l -1.64818,-4.04424 h 0.43745 q 0.0734,0 0.11853,0.0367 0.0452,0.0367 0.0677,0.0931 l 1.14018,2.85327 q 0.0367,0.0959 0.0706,0.20884 0.0367,0.11289 0.0649,0.23707 0.0282,-0.12418 0.0593,-0.23707 0.031,-0.11289 0.0677,-0.20884 l 1.13735,-2.85327 q 0.0169,-0.048 0.0649,-0.0875 0.0508,-0.0423 0.12136,-0.0423 z m 0.94545,1.18533 v 2.85891 h -0.50236 v -2.85891 z m 0.10724,-0.89746 q 0,0.0734 -0.031,0.13828 -0.0282,0.0621 -0.079,0.11289 -0.048,0.048 -0.11571,0.0762 -0.0649,0.0282 -0.13828,0.0282 -0.0734,0 -0.13829,-0.0282 -0.0621,-0.0282 -0.11007,-0.0762 -0.048,-0.0508 -0.0762,-0.11289 -0.0282,-0.0649 -0.0282,-0.13828 0,-0.0734 0.0282,-0.13829 0.0282,-0.0677 0.0762,-0.11571 0.048,-0.0508 0.11007,-0.079 0.0649,-0.0282 0.13829,-0.0282 0.0734,0 0.13828,0.0282 0.0677,0.0282 0.11571,0.079 0.0508,0.048 0.079,0.11571 0.031,0.0649 0.031,0.13829 z m 1.1938,1.47037 q 0.13547,-0.29351 0.33302,-0.4572 0.19756,-0.16651 0.4826,-0.16651 0.0903,0 0.17216,0.0198 0.0847,0.0197 0.14957,0.0621 l -0.0367,0.37535 q -0.0169,0.0706 -0.0847,0.0706 -0.0395,0 -0.11571,-0.0169 -0.0762,-0.0169 -0.17216,-0.0169 -0.13546,0 -0.24271,0.0395 -0.10442,0.0395 -0.18909,0.11853 -0.0818,0.0762 -0.14958,0.19192 -0.0649,0.11288 -0.11853,0.25964 v 1.80622 h -0.50518 v -2.85891 h 0.28787 q 0.0818,0 0.11289,0.031 0.031,0.031 0.0423,0.10724 z m 2.45533,2.33116 q -0.33866,0 -0.52211,-0.18909 -0.18062,-0.18909 -0.18062,-0.54469 v -1.74978 h -0.34431 q -0.0452,0 -0.0762,-0.0254 -0.031,-0.0282 -0.031,-0.0847 v -0.20038 l 0.46849,-0.0593 0.11571,-0.88335 q 0.008,-0.0423 0.0367,-0.0677 0.031,-0.0282 0.079,-0.0282 h 0.254 v 0.98496 h 0.82691 v 0.36406 h -0.82691 v 1.71591 q 0,0.18062 0.0875,0.26811 0.0875,0.0875 0.22578,0.0875 0.079,0 0.13547,-0.0197 0.0593,-0.0226 0.1016,-0.048 0.0423,-0.0254 0.0705,-0.0452 0.0311,-0.0226 0.0536,-0.0226 0.0395,0 0.0705,0.048 l 0.14676,0.23989 q -0.12983,0.12136 -0.31327,0.19191 -0.18344,0.0677 -0.37818,0.0677 z m 1.81187,-0.0452 h -0.54752 v -4.04424 h 0.54752 z m 4.76955,-2.02071 q 0,0.45438 -0.14393,0.83538 -0.14394,0.37818 -0.4064,0.65193 -0.26247,0.27376 -0.63218,0.42616 -0.36689,0.14957 -0.8128,0.14957 -0.44591,0 -0.8128,-0.14957 -0.36689,-0.1524 -0.62935,-0.42616 -0.26247,-0.27375 -0.4064,-0.65193 -0.14394,-0.381 -0.14394,-0.83538 0,-0.45438 0.14394,-0.83255 0.14393,-0.381 0.4064,-0.65476 0.26246,-0.27658 0.62935,-0.42898 0.36689,-0.1524 0.8128,-0.1524 0.44591,0 0.8128,0.1524 0.36971,0.1524 0.63218,0.42898 0.26246,0.27376 0.4064,0.65476 0.14393,0.37817 0.14393,0.83255 z m -0.56162,0 q 0,-0.37253 -0.1016,-0.66887 -0.1016,-0.29633 -0.28787,-0.49953 -0.18626,-0.20602 -0.45155,-0.31609 -0.26529,-0.11006 -0.59267,-0.11006 -0.32455,0 -0.58984,0.11006 -0.26529,0.11007 -0.45438,0.31609 -0.18627,0.2032 -0.28787,0.49953 -0.1016,0.29634 -0.1016,0.66887 0,0.37253 0.1016,0.66887 0.1016,0.29351 0.28787,0.49953 0.18909,0.2032 0.45438,0.31327 0.26529,0.10724 0.58984,0.10724 0.32738,0 0.59267,-0.10724 0.26529,-0.11007 0.45155,-0.31327 0.18627,-0.20602 0.28787,-0.49953 0.1016,-0.29634 0.1016,-0.66887 z m 2.78272,-2.30575 h 0.39228 v 5.31142 h -0.39228 z m 3.98497,2.24084 q 0.23707,0 0.41769,-0.0564 0.18345,-0.0593 0.3048,-0.16369 0.12418,-0.10725 0.18627,-0.254 0.0621,-0.14676 0.0621,-0.32456 0,-0.36124 -0.23707,-0.54469 -0.23707,-0.18344 -0.7112,-0.18344 h -0.59831 v 1.52682 z m 1.86831,2.08562 h -0.48542 q -0.14958,0 -0.22013,-0.11571 l -1.04987,-1.44498 q -0.048,-0.0677 -0.10442,-0.096 -0.0536,-0.031 -0.16933,-0.031 h -0.41487 v 1.68769 h -0.54469 v -4.04424 h 1.143 q 0.38382,0 0.66322,0.079 0.2794,0.0762 0.46002,0.22296 0.18345,0.14675 0.27094,0.3556 0.0875,0.20602 0.0875,0.46284 0,0.21449 -0.0677,0.40076 -0.0677,0.18626 -0.19755,0.33584 -0.127,0.14676 -0.31327,0.25118 -0.18344,0.10442 -0.41769,0.15804 0.10442,0.0593 0.18062,0.17216 z m 1.74131,-1.94733 q 0.23424,0 0.41204,-0.0621 0.18062,-0.0621 0.30198,-0.17216 0.12418,-0.11288 0.18626,-0.26811 0.0621,-0.15522 0.0621,-0.34148 0,-0.38665 -0.23989,-0.60396 -0.23706,-0.21731 -0.72248,-0.21731 h -0.64911 v 1.66511 z m 0,-2.09691 q 0.38382,0 0.66604,0.0903 0.28504,0.0875 0.47131,0.25118 0.18627,0.16369 0.27658,0.39511 0.0931,0.23142 0.0931,0.51647 0,0.28222 -0.0988,0.51646 -0.0988,0.23425 -0.29068,0.40358 -0.18909,0.16933 -0.47132,0.26529 -0.2794,0.0931 -0.64628,0.0931 h -0.64911 v 1.51271 h -0.54469 v -4.04424 z m 5.03484,3.20886 q 0.0451,0 0.079,0.0367 l 0.21731,0.23425 q -0.24835,0.28786 -0.60395,0.44873 -0.35278,0.16087 -0.85514,0.16087 -0.43462,0 -0.79022,-0.14958 -0.3556,-0.1524 -0.60677,-0.42333 -0.25118,-0.27376 -0.38947,-0.65476 -0.13829,-0.381 -0.13829,-0.8382 0,-0.4572 0.14393,-0.8382 0.14394,-0.381 0.40358,-0.65475 0.26247,-0.27376 0.62653,-0.42334 0.36407,-0.1524 0.80434,-0.1524 0.4318,0 0.762,0.13829 0.3302,0.13829 0.58137,0.37536 l -0.18062,0.25118 q -0.0169,0.0282 -0.0452,0.048 -0.0254,0.0169 -0.0706,0.0169 -0.0508,0 -0.12418,-0.0536 -0.0734,-0.0564 -0.19191,-0.12417 -0.11853,-0.0677 -0.29633,-0.12136 -0.1778,-0.0564 -0.43745,-0.0564 -0.31326,0 -0.57291,0.11006 -0.25964,0.10725 -0.44873,0.31327 -0.18627,0.20602 -0.29069,0.50235 -0.10442,0.29634 -0.10442,0.66887 0,0.37818 0.10724,0.67451 0.11007,0.29633 0.29634,0.50236 0.18909,0.2032 0.44309,0.31044 0.25682,0.10725 0.55315,0.10725 0.18062,0 0.32456,-0.0198 0.14675,-0.0226 0.26811,-0.0677 0.12417,-0.0452 0.2286,-0.11289 0.10724,-0.0706 0.21166,-0.16651 0.048,-0.0423 0.096,-0.0423 z"
         id="path3" />
      <path
         style="font-weight:300;font-size:5.29167px;-inkscape-font-specification:'Lato, Light'"
         d="m 149.70843,178.38126 h -1.31498 v 3.51367 h -0.27253 v -3.51367 h -1.32291 v -0.23019 h 2.91042 z m 0.11112,1.51606 q 0.0609,-0.16139 0.13758,-0.28575 0.0794,-0.127 0.17992,-0.21431 0.10319,-0.0873 0.22754,-0.13229 0.127,-0.0476 0.28046,-0.0476 0.082,0 0.1614,0.0159 0.0794,0.0132 0.14023,0.0503 l -0.0212,0.17462 q -0.0132,0.0423 -0.0503,0.0423 -0.0317,0 -0.0979,-0.0185 -0.0635,-0.0185 -0.16933,-0.0185 -0.15346,0 -0.27252,0.0476 -0.11642,0.045 -0.21167,0.13758 -0.0926,0.0926 -0.16404,0.23019 -0.0688,0.13494 -0.127,0.31221 v 1.70392 h -0.254 v -2.63261 h 0.13494 q 0.045,0 0.0635,0.0185 0.0185,0.0185 0.0238,0.0635 z m 3.04801,0.72496 q -0.37571,0.0132 -0.64823,0.0609 -0.26988,0.045 -0.44715,0.12435 -0.17463,0.0794 -0.25929,0.1905 -0.0847,0.10848 -0.0847,0.24871 0,0.13229 0.0423,0.23019 0.045,0.0952 0.11642,0.15875 0.0741,0.0609 0.16933,0.09 0.0952,0.0291 0.19844,0.0291 0.15346,0 0.28046,-0.0318 0.12965,-0.0344 0.23813,-0.0926 0.11112,-0.0608 0.20637,-0.14287 0.0952,-0.082 0.18786,-0.17727 z m -1.54782,-0.9869 q 0.20638,-0.20637 0.43392,-0.3122 0.22754,-0.10584 0.51594,-0.10584 0.21166,0 0.37041,0.0688 0.15875,0.0661 0.26194,0.19315 0.10583,0.12435 0.15875,0.30427 0.0529,0.17727 0.0529,0.39688 v 1.7145 h -0.10054 q -0.0794,0 -0.0979,-0.0741 l -0.037,-0.33866 q -0.10848,0.10583 -0.21696,0.1905 -0.10583,0.0847 -0.22225,0.14287 -0.11642,0.0582 -0.25135,0.09 -0.13494,0.0318 -0.29634,0.0318 -0.13494,0 -0.26194,-0.0397 -0.127,-0.0397 -0.22754,-0.1217 -0.0979,-0.082 -0.15875,-0.20903 -0.0582,-0.12964 -0.0582,-0.30956 0,-0.16669 0.0952,-0.30956 0.0953,-0.14288 0.29898,-0.24871 0.20373,-0.10583 0.52123,-0.16933 0.32015,-0.0635 0.7673,-0.0741 v -0.27516 q 0,-0.36513 -0.15875,-0.56092 -0.15611,-0.19844 -0.46567,-0.19844 -0.1905,0 -0.32544,0.0529 -0.13229,0.0529 -0.2249,0.11642 -0.0926,0.0635 -0.15081,0.11641 -0.0582,0.0529 -0.0979,0.0529 -0.0291,0 -0.0476,-0.0132 -0.0185,-0.0132 -0.0317,-0.0344 z m 2.87602,0.0873 q 0.18256,-0.22754 0.42069,-0.36513 0.24077,-0.13758 0.53446,-0.13758 0.21696,0 0.381,0.0688 0.16668,0.0688 0.27516,0.19844 0.10848,0.12964 0.16405,0.31221 0.0556,0.18256 0.0556,0.41275 v 1.68275 h -0.254 v -1.68275 q 0,-0.37042 -0.16934,-0.57944 -0.16933,-0.21167 -0.51593,-0.21167 -0.25665,0 -0.48155,0.13229 -0.22225,0.12965 -0.39687,0.36248 v 1.97909 h -0.254 v -2.63261 h 0.14023 q 0.0661,0 0.0767,0.0662 z m 4.11692,-0.13494 q -0.0212,0.037 -0.0609,0.037 -0.0291,0 -0.0741,-0.0317 -0.045,-0.0344 -0.12171,-0.0741 -0.0741,-0.0423 -0.18521,-0.0741 -0.11112,-0.0344 -0.26987,-0.0344 -0.14288,0 -0.26194,0.0423 -0.11642,0.0397 -0.20109,0.10848 -0.082,0.0688 -0.127,0.1614 -0.045,0.09 -0.045,0.1905 0,0.12435 0.0635,0.20637 0.0635,0.082 0.16404,0.14023 0.10318,0.0582 0.23548,0.10054 0.13229,0.0423 0.26723,0.0847 0.13758,0.0423 0.26987,0.0952 0.13229,0.0503 0.23283,0.127 0.10319,0.0767 0.16669,0.18785 0.0635,0.11113 0.0635,0.26988 0,0.17198 -0.0609,0.32015 -0.0609,0.14816 -0.17992,0.25664 -0.11642,0.10848 -0.28839,0.17198 -0.17198,0.0635 -0.39423,0.0635 -0.27782,0 -0.4789,-0.0873 -0.20108,-0.09 -0.35983,-0.23283 l 0.0582,-0.09 q 0.0132,-0.0212 0.0291,-0.0318 0.0185,-0.0106 0.0476,-0.0106 0.0344,0 0.082,0.0423 0.0503,0.0423 0.1323,0.0926 0.082,0.0476 0.20108,0.09 0.12171,0.0423 0.29898,0.0423 0.16669,0 0.29369,-0.045 0.127,-0.0476 0.21166,-0.127 0.0847,-0.0794 0.127,-0.1852 0.045,-0.10848 0.045,-0.22755 0,-0.13229 -0.0635,-0.2196 -0.0635,-0.0873 -0.16668,-0.14817 -0.10319,-0.0609 -0.23548,-0.10319 -0.12965,-0.0423 -0.26723,-0.0847 -0.13759,-0.0423 -0.26988,-0.0926 -0.12964,-0.0503 -0.23283,-0.127 -0.10319,-0.0767 -0.16669,-0.1852 -0.0635,-0.11113 -0.0635,-0.27517 0,-0.14023 0.0608,-0.26988 0.0609,-0.12964 0.17198,-0.22754 0.11377,-0.0979 0.27517,-0.1561 0.1614,-0.0582 0.36248,-0.0582 0.24077,0 0.42598,0.0688 0.18785,0.0688 0.34131,0.21167 z m 1.05568,1.73302 q 0.0767,0.11377 0.15875,0.19315 0.0847,0.0767 0.17727,0.127 0.0926,0.0476 0.19579,0.0688 0.10584,0.0212 0.22225,0.0212 0.23284,0 0.40746,-0.0847 0.17463,-0.0847 0.29104,-0.23813 0.11907,-0.1561 0.17727,-0.37041 0.0609,-0.21696 0.0609,-0.47625 0,-0.58738 -0.21696,-0.86255 -0.21696,-0.27781 -0.62177,-0.27781 -0.26194,0 -0.47361,0.13494 -0.21166,0.13494 -0.37835,0.37571 z m -0.0106,-1.58485 q 0.17462,-0.23813 0.40745,-0.37836 0.23548,-0.14023 0.52653,-0.14023 0.48418,0 0.75406,0.33602 0.27252,0.33603 0.27252,1.00807 0,0.28839 -0.0767,0.53975 -0.0741,0.24871 -0.22225,0.43391 -0.14552,0.18257 -0.35983,0.2884 -0.21167,0.10583 -0.48948,0.10583 -0.26723,0 -0.46302,-0.0979 -0.1958,-0.0979 -0.33867,-0.2884 v 1.28323 h -0.254 v -3.56394 h 0.14023 q 0.0661,0 0.0767,0.0662 z m 3.7174,-0.51594 q 0.2831,0 0.50535,0.0979 0.2249,0.0952 0.37836,0.27253 0.15345,0.17727 0.23283,0.42862 0.082,0.24871 0.082,0.55827 0,0.30956 -0.082,0.55827 -0.0794,0.24871 -0.23283,0.42598 -0.15346,0.17727 -0.37836,0.27252 -0.22225,0.0952 -0.50535,0.0952 -0.28311,0 -0.508,-0.0952 -0.22225,-0.0952 -0.37836,-0.27252 -0.15346,-0.17727 -0.23548,-0.42598 -0.0794,-0.24871 -0.0794,-0.55827 0,-0.30956 0.0794,-0.55827 0.082,-0.25135 0.23548,-0.42862 0.15611,-0.17728 0.37836,-0.27253 0.22489,-0.0979 0.508,-0.0979 z m 0,2.5109 q 0.23548,0 0.4101,-0.0794 0.17727,-0.082 0.29369,-0.23283 0.11906,-0.15081 0.17727,-0.36248 0.0582,-0.21431 0.0582,-0.4789 0,-0.26194 -0.0582,-0.47625 -0.0582,-0.21431 -0.17727,-0.36512 -0.11642,-0.15346 -0.29369,-0.23548 -0.17462,-0.082 -0.4101,-0.082 -0.23548,0 -0.41275,0.082 -0.17463,0.082 -0.29369,0.23548 -0.11642,0.15081 -0.17727,0.36512 -0.0582,0.21431 -0.0582,0.47625 0,0.26459 0.0582,0.4789 0.0608,0.21167 0.17727,0.36248 0.11906,0.15081 0.29369,0.23283 0.17727,0.0794 0.41275,0.0794 z m 2.15106,-1.83357 q 0.0609,-0.16139 0.13759,-0.28575 0.0794,-0.127 0.17991,-0.21431 0.10319,-0.0873 0.22754,-0.13229 0.127,-0.0476 0.28046,-0.0476 0.082,0 0.1614,0.0159 0.0794,0.0132 0.14023,0.0503 l -0.0212,0.17462 q -0.0132,0.0423 -0.0503,0.0423 -0.0317,0 -0.0979,-0.0185 -0.0635,-0.0185 -0.16933,-0.0185 -0.15346,0 -0.27252,0.0476 -0.11642,0.045 -0.21167,0.13758 -0.0926,0.0926 -0.16404,0.23019 -0.0688,0.13494 -0.127,0.31221 v 1.70392 h -0.254 v -2.63261 h 0.13494 q 0.045,0 0.0635,0.0185 0.0185,0.0185 0.0238,0.0635 z m 2.34951,2.03994 q -0.26723,0 -0.41805,-0.14817 -0.14816,-0.14816 -0.14816,-0.45772 v -1.79917 h -0.37836 q -0.0291,0 -0.0476,-0.0159 -0.0185,-0.0159 -0.0185,-0.045 v -0.0979 l 0.44979,-0.0317 0.0635,-0.94192 q 0.005,-0.0238 0.0212,-0.0423 0.0159,-0.0185 0.045,-0.0185 h 0.11907 v 1.00541 h 0.83079 v 0.18786 h -0.83079 v 1.78594 q 0,0.10848 0.0265,0.18785 0.0291,0.0767 0.0767,0.127 0.0503,0.0503 0.11642,0.0741 0.0662,0.0238 0.14288,0.0238 0.0952,0 0.16404,-0.0265 0.0688,-0.0291 0.11906,-0.0609 0.0503,-0.0344 0.082,-0.0609 0.0317,-0.0291 0.0503,-0.0291 0.0212,0 0.0423,0.0265 l 0.0688,0.11113 q -0.10054,0.11112 -0.25665,0.17992 -0.15346,0.0661 -0.32014,0.0661 z"
         id="path4" />
    </g>
    <rect
       id="rect1513-2-2-4-8"
       data-name="rect151"
       class="st0"
       x="90.118523"
       y="166.98674"
       width="12.909021"
       height="19.538612"
       style="display:inline;fill:none;fill-opacity:1;stroke:#fff3f0;stroke-width:0.290153;stroke-dasharray:0.580307, 0.290153;stroke-dashoffset:0;stroke-opacity:1"
       ry="2.1647186" />
    <path
       d="m 99.630831,169.83457 h -1.30951 v 3.58422 h -0.544689 v -3.58422 H 96.4643 v -0.46002 h 3.166531 z m 1.145819,-0.0141 v 1.41393 h 1.66229 v 0.44592 h -1.66229 v 1.73848 h -0.54751 v -4.04424 h 2.49202 v 0.44591 z"
       id="text3-2-5-9-0"
       style="font-size:5.64444px;line-height:1.25;font-family:Lato;-inkscape-font-specification:'Lato, Normal';text-align:center;letter-spacing:0px;word-spacing:0px;text-anchor:middle;fill:#fff3f0;stroke-width:0.272684"
       transform="scale(0.96967957,1.0312685)"
       aria-label="TF" />
    <path
       d="m 104.24054,110.69759 q -0.34713,0.0113 -0.59266,0.0564 -0.24271,0.0423 -0.39793,0.11289 -0.1524,0.0706 -0.22296,0.16651 -0.0677,0.096 -0.0677,0.21449 0,0.11289 0.0367,0.19473 0.0367,0.0819 0.0988,0.13547 0.0649,0.0508 0.14958,0.0762 0.0875,0.0226 0.18627,0.0226 0.13264,0 0.24271,-0.0254 0.11007,-0.0282 0.20602,-0.079 0.0988,-0.0508 0.18627,-0.12136 0.0903,-0.0706 0.17497,-0.16087 z m -1.62277,-1.1684 q 0.23706,-0.2286 0.51082,-0.34149 0.27376,-0.11289 0.60678,-0.11289 0.23989,0 0.42615,0.079 0.18627,0.079 0.31327,0.22014 0.127,0.14111 0.19191,0.34149 0.0649,0.20037 0.0649,0.44026 v 1.8288 h -0.22295 q -0.0734,0 -0.11289,-0.0226 -0.0395,-0.0254 -0.0621,-0.096 l -0.0564,-0.27094 q -0.11289,0.10443 -0.22013,0.18627 -0.10724,0.079 -0.22578,0.13547 -0.11853,0.0536 -0.254,0.0818 -0.13264,0.031 -0.29633,0.031 -0.16651,0 -0.31327,-0.0452 -0.14675,-0.048 -0.25682,-0.14111 -0.10724,-0.0931 -0.17215,-0.23425 -0.0621,-0.14393 -0.0621,-0.33866 0,-0.16933 0.0931,-0.32456 0.0931,-0.15804 0.30198,-0.2794 0.20884,-0.12135 0.54469,-0.19755 0.33584,-0.079 0.82408,-0.0903 v -0.22296 q 0,-0.33302 -0.14393,-0.50235 -0.14393,-0.17216 -0.42051,-0.17216 -0.18627,0 -0.31327,0.048 -0.12417,0.0452 -0.21731,0.10442 -0.0903,0.0564 -0.15804,0.10442 -0.0649,0.0452 -0.12982,0.0452 -0.0508,0 -0.0875,-0.0254 -0.0367,-0.0282 -0.0621,-0.0677 z m 3.38384,1.76671 q 0.13829,0.18626 0.30198,0.26246 0.16368,0.0762 0.36688,0.0762 0.40076,0 0.61525,-0.28504 0.21449,-0.28504 0.21449,-0.8128 0,-0.2794 -0.0508,-0.47978 -0.048,-0.20037 -0.14111,-0.32737 -0.0931,-0.12983 -0.2286,-0.18909 -0.13547,-0.0593 -0.30763,-0.0593 -0.24553,0 -0.4318,0.11289 -0.18344,0.11289 -0.33866,0.31891 z m -0.0254,-1.7272 q 0.18062,-0.22296 0.41769,-0.35842 0.23706,-0.13547 0.54186,-0.13547 0.24836,0 0.44874,0.096 0.20037,0.0931 0.34149,0.2794 0.14111,0.18344 0.21731,0.4572 0.0762,0.27375 0.0762,0.62935 0,0.31609 -0.0847,0.58985 -0.0847,0.27093 -0.24553,0.47131 -0.15805,0.19755 -0.38947,0.31326 -0.2286,0.11289 -0.51647,0.11289 -0.26246,0 -0.45155,-0.0875 -0.18627,-0.0903 -0.3302,-0.24835 v 1.26435 h -0.50518 v -3.82693 h 0.30198 q 0.10724,0 0.13264,0.10442 z m 3.1891,1.7272 q 0.13829,0.18626 0.30198,0.26246 0.16369,0.0762 0.36689,0.0762 0.40075,0 0.61524,-0.28504 0.21449,-0.28504 0.21449,-0.8128 0,-0.2794 -0.0508,-0.47978 -0.048,-0.20037 -0.14111,-0.32737 -0.0931,-0.12983 -0.2286,-0.18909 -0.13547,-0.0593 -0.30762,-0.0593 -0.24553,0 -0.4318,0.11289 -0.18345,0.11289 -0.33867,0.31891 z m -0.0254,-1.7272 q 0.18062,-0.22296 0.41769,-0.35842 0.23707,-0.13547 0.54187,-0.13547 0.24835,0 0.44873,0.096 0.20038,0.0931 0.34149,0.2794 0.14111,0.18344 0.21731,0.4572 0.0762,0.27375 0.0762,0.62935 0,0.31609 -0.0847,0.58985 -0.0847,0.27093 -0.24553,0.47131 -0.15804,0.19755 -0.38947,0.31326 -0.2286,0.11289 -0.51646,0.11289 -0.26247,0 -0.45156,-0.0875 -0.18626,-0.0903 -0.3302,-0.24835 v 1.26435 h -0.50517 v -3.82693 h 0.30197 q 0.10725,0 0.13265,0.10442 z m 3.20322,-1.74131 v 4.15713 h -0.50236 v -4.15713 z m 1.34338,1.29822 v 2.85891 h -0.50236 v -2.85891 z m 0.10724,-0.89746 q 0,0.0734 -0.031,0.13828 -0.0282,0.0621 -0.079,0.11289 -0.048,0.048 -0.11571,0.0762 -0.0649,0.0282 -0.13829,0.0282 -0.0734,0 -0.13829,-0.0282 -0.0621,-0.0282 -0.11006,-0.0762 -0.048,-0.0508 -0.0762,-0.11289 -0.0282,-0.0649 -0.0282,-0.13828 0,-0.0734 0.0282,-0.13829 0.0282,-0.0677 0.0762,-0.11571 0.048,-0.0508 0.11006,-0.079 0.0649,-0.0282 0.13829,-0.0282 0.0734,0 0.13829,0.0282 0.0677,0.0282 0.11571,0.079 0.0508,0.048 0.079,0.11571 0.031,0.0649 0.031,0.13829 z m 2.70651,1.40546 q -0.0226,0.031 -0.0452,0.048 -0.0226,0.0169 -0.0621,0.0169 -0.0423,0 -0.0931,-0.0339 -0.0508,-0.0367 -0.127,-0.079 -0.0734,-0.0423 -0.18344,-0.0762 -0.10725,-0.0367 -0.26529,-0.0367 -0.21167,0 -0.37254,0.0762 -0.16086,0.0734 -0.27093,0.21449 -0.10724,0.14111 -0.16369,0.34149 -0.0536,0.20038 -0.0536,0.44873 0,0.25965 0.0593,0.46285 0.0593,0.20038 0.16651,0.33866 0.11006,0.13547 0.26246,0.20885 0.15523,0.0705 0.34714,0.0705 0.18344,0 0.30197,-0.0423 0.11854,-0.0452 0.19474,-0.0988 0.079,-0.0536 0.12982,-0.096 0.0536,-0.0452 0.10442,-0.0452 0.0621,0 0.096,0.048 l 0.14111,0.18344 q -0.0931,0.11572 -0.21167,0.19756 -0.11853,0.0818 -0.25682,0.13829 -0.13547,0.0536 -0.28504,0.079 -0.14958,0.0254 -0.3048,0.0254 -0.26811,0 -0.49954,-0.0988 -0.2286,-0.0988 -0.39793,-0.28504 -0.16933,-0.18909 -0.26529,-0.46284 -0.096,-0.27376 -0.096,-0.62372 0,-0.31891 0.0875,-0.58984 0.0903,-0.27093 0.25965,-0.46567 0.17215,-0.19755 0.42051,-0.30762 0.25118,-0.11006 0.57573,-0.11006 0.30198,0 0.53058,0.0988 0.23142,0.096 0.40922,0.27376 z m 2.25496,1.06398 q -0.34714,0.0113 -0.59267,0.0564 -0.24271,0.0423 -0.39793,0.11289 -0.1524,0.0706 -0.22296,0.16651 -0.0677,0.096 -0.0677,0.21449 0,0.11289 0.0367,0.19473 0.0367,0.0819 0.0988,0.13547 0.0649,0.0508 0.14958,0.0762 0.0875,0.0226 0.18627,0.0226 0.13264,0 0.24271,-0.0254 0.11007,-0.0282 0.20602,-0.079 0.0988,-0.0508 0.18627,-0.12136 0.0903,-0.0706 0.17498,-0.16087 z m -1.62278,-1.1684 q 0.23707,-0.2286 0.51082,-0.34149 0.27376,-0.11289 0.60678,-0.11289 0.23989,0 0.42615,0.079 0.18627,0.079 0.31327,0.22014 0.127,0.14111 0.19191,0.34149 0.0649,0.20037 0.0649,0.44026 v 1.8288 h -0.22295 q -0.0734,0 -0.11289,-0.0226 -0.0395,-0.0254 -0.0621,-0.096 l -0.0564,-0.27094 q -0.11288,0.10443 -0.22013,0.18627 -0.10724,0.079 -0.22578,0.13547 -0.11853,0.0536 -0.254,0.0818 -0.13264,0.031 -0.29633,0.031 -0.16651,0 -0.31327,-0.0452 -0.14675,-0.048 -0.25682,-0.14111 -0.10724,-0.0931 -0.17215,-0.23425 -0.0621,-0.14393 -0.0621,-0.33866 0,-0.16933 0.0931,-0.32456 0.0931,-0.15804 0.30198,-0.2794 0.20884,-0.12135 0.54469,-0.19755 0.33584,-0.079 0.82409,-0.0903 v -0.22296 q 0,-0.33302 -0.14394,-0.50235 -0.14393,-0.17216 -0.42051,-0.17216 -0.18626,0 -0.31326,0.048 -0.12418,0.0452 -0.21732,0.10442 -0.0903,0.0564 -0.15804,0.10442 -0.0649,0.0452 -0.12982,0.0452 -0.0508,0 -0.0875,-0.0254 -0.0367,-0.0282 -0.0621,-0.0677 z m 5.49486,2.45533 h -0.50236 v -2.4384 h -1.4732 v 1.71591 q 0,0.18062 0.0875,0.26811 0.0875,0.0875 0.22578,0.0875 0.079,0 0.13547,-0.0198 0.0593,-0.0226 0.1016,-0.048 0.0423,-0.0254 0.0706,-0.0452 0.031,-0.0226 0.0536,-0.0226 0.0395,0 0.0705,0.048 l 0.14676,0.23989 q -0.12983,0.12136 -0.31327,0.19191 -0.18344,0.0677 -0.37818,0.0677 -0.33866,0 -0.52211,-0.18909 -0.18062,-0.18909 -0.18062,-0.54469 v -1.74978 h -0.34431 q -0.0452,0 -0.0762,-0.0254 -0.0311,-0.0282 -0.0311,-0.0847 v -0.20038 l 0.46849,-0.0621 0.11571,-0.88053 q 0.008,-0.0423 0.0367,-0.0677 0.0311,-0.0282 0.079,-0.0282 h 0.25399 v 0.98496 h 1.97556 z m 0.12418,-3.77613 q 0,0.0734 -0.0311,0.13829 -0.0282,0.0621 -0.079,0.11006 -0.048,0.048 -0.11289,0.0762 -0.0649,0.0282 -0.13829,0.0282 -0.0734,0 -0.13829,-0.0282 -0.0621,-0.0282 -0.11006,-0.0762 -0.048,-0.048 -0.0762,-0.11006 -0.0282,-0.0649 -0.0282,-0.13829 0,-0.0734 0.0282,-0.13829 0.0282,-0.0677 0.0762,-0.11571 0.048,-0.0508 0.11006,-0.079 0.0649,-0.0282 0.13829,-0.0282 0.0734,0 0.13829,0.0282 0.0649,0.0282 0.11289,0.079 0.0508,0.048 0.079,0.11571 0.0311,0.0649 0.0311,0.13829 z m 1.90499,0.87207 q 0.31327,0 0.56444,0.10442 0.25118,0.10442 0.42898,0.29633 0.1778,0.19191 0.27094,0.46567 0.096,0.27093 0.096,0.60677 0,0.33867 -0.096,0.6096 -0.0931,0.27094 -0.27094,0.46285 -0.1778,0.19191 -0.42898,0.29633 -0.25117,0.1016 -0.56444,0.1016 -0.31609,0 -0.57009,-0.1016 -0.25118,-0.10442 -0.42898,-0.29633 -0.1778,-0.19191 -0.27375,-0.46285 -0.0931,-0.27093 -0.0931,-0.6096 0,-0.33584 0.0931,-0.60677 0.096,-0.27376 0.27375,-0.46567 0.1778,-0.19191 0.42898,-0.29633 0.254,-0.10442 0.57009,-0.10442 z m 0,2.55128 q 0.42333,0 0.63218,-0.28222 0.20884,-0.28504 0.20884,-0.79304 0,-0.51083 -0.20884,-0.79587 -0.20885,-0.28504 -0.63218,-0.28504 -0.21449,0 -0.37535,0.0734 -0.15805,0.0734 -0.26529,0.21167 -0.10443,0.13829 -0.15805,0.34149 -0.0508,0.20038 -0.0508,0.45438 0,0.508 0.20885,0.79304 0.21166,0.28222 0.64064,0.28222 z m 2.46944,-2.09126 q 0.0931,-0.10442 0.19756,-0.18909 0.10442,-0.0847 0.22013,-0.14393 0.11853,-0.0621 0.24836,-0.0931 0.13264,-0.0339 0.28504,-0.0339 0.23424,0 0.41204,0.079 0.18063,0.0762 0.29916,0.22013 0.12135,0.14111 0.18344,0.34149 0.0621,0.20038 0.0621,0.44309 v 1.82033 h -0.50518 v -1.82033 q 0,-0.32456 -0.14957,-0.50236 -0.14676,-0.18062 -0.44874,-0.18062 -0.22295,0 -0.41768,0.10725 -0.19192,0.10724 -0.3556,0.29068 v 2.10538 h -0.50518 v -2.85891 h 0.30198 q 0.10724,0 0.13264,0.10442 z"
       id="text14-1"
       style="font-size:5.64444px;line-height:1.25;font-family:Lato;-inkscape-font-specification:'Lato, Normal';letter-spacing:0px;word-spacing:0px;fill:#fff3f0;stroke-width:0.264583"
       aria-label="application" />
  </g>
</svg>
